Newsreader72pt-Medium.ufo
<glyph name="ampersand" format="2">
  <advance width="1534.2"/>
  <unicode hex="0026"/>
  <outline>
    <contour>
      <point x="660.4" y="839.0" type="line"/>
      <point x="923.8000000000001" y="948.2"/>
      <point x="1008.0" y="1051.6"/>
      <point x="1008.0" y="1190.0" type="curve" smooth="yes"/>
      <point x="1008.0" y="1332.8000000000002"/>
      <point x="896.4000000000001" y="1452.0"/>
      <point x="666.6" y="1452.0" type="curve" smooth="yes"/>
      <point x="403.2" y="1452.0"/>
      <point x="268.2" y="1304.6"/>
      <point x="268.2" y="1120.1999999999998" type="curve" smooth="yes"/>
      <point x="268.2" y="1016.4"/>
      <point x="304.40000000000003" y="919.2"/>
      <point x="430.2" y="776.8" type="curve" smooth="yes"/>
      <point x="1112.6000000000001" y="0.0" type="line"/>
      <point x="1532.4" y="0.0" type="line"/>
      <point x="1532.4" y="29.6" type="line"/>
      <point x="1349.6000000000001" y="75.8" type="line"/>
      <point x="632.4" y="881.6" type="line" smooth="yes"/>
      <point x="506.0" y="1023.4"/>
      <point x="463.2" y="1112.2"/>
      <point x="463.2" y="1215.3999999999999" type="curve" smooth="yes"/>
      <point x="463.2" y="1330.2"/>
      <point x="542.2" y="1400.6000000000001"/>
      <point x="654.0" y="1400.6000000000001" type="curve" smooth="yes"/>
      <point x="765.0" y="1400.6000000000001"/>
      <point x="827.0" y="1326.3999999999999"/>
      <point x="827.0" y="1188.0" type="curve" smooth="yes"/>
      <point x="827.0" y="1067.2"/>
      <point x="773.0" y="963.0"/>
      <point x="624.1999999999999" y="861.0" type="curve"/>
      <point x="489.6" y="789.8000000000001" type="line"/>
      <point x="191.0" y="663.6"/>
      <point x="101.19999999999999" y="523.4"/>
      <point x="101.19999999999999" y="342.8" type="curve" smooth="yes"/>
      <point x="101.19999999999999" y="130.2"/>
      <point x="240.79999999999998" y="-22.0"/>
      <point x="519.2" y="-22.0" type="curve" smooth="yes"/>
      <point x="724.5999999999999" y="-22.0"/>
      <point x="885.8" y="58.4"/>
      <point x="1027.2" y="228.4" type="curve"/>
      <point x="1064.6000000000001" y="264.2" type="line"/>
      <point x="1169.8000000000002" y="402.6"/>
      <point x="1251.8" y="574.4"/>
      <point x="1311.2" y="805.6" type="curve"/>
      <point x="1478.8" y="844.0" type="line"/>
      <point x="1478.8" y="874.0" type="line"/>
      <point x="1011.5999999999999" y="874.0" type="line"/>
      <point x="1011.5999999999999" y="844.0" type="line"/>
      <point x="1181.6000000000001" y="805.6" type="line"/>
      <point x="1162.6000000000001" y="574.1999999999999"/>
      <point x="1108.8" y="416.40000000000003"/>
      <point x="1035.0" y="312.6" type="curve"/>
      <point x="987.8000000000001" y="264.6" type="line"/>
      <point x="900.8" y="169.6"/>
      <point x="793.8" y="123.0"/>
      <point x="663.1999999999999" y="123.0" type="curve" smooth="yes"/>
      <point x="455.79999999999995" y="123.0"/>
      <point x="328.4" y="255.20000000000002"/>
      <point x="328.4" y="443.59999999999997" type="curve" smooth="yes"/>
      <point x="328.4" y="571.6"/>
      <point x="379.2" y="684.4"/>
      <point x="513.8000000000001" y="773.8" type="curve"/>
    </contour>
  </outline>
</glyph>
<glyph name="quotesingle" format="2">
  <advance width="381.2"/>
  <unicode hex="0027"/>
  <outline>
    <contour>
      <point x="168.79999999999998" y="911.2" type="line"/>
      <point x="202.4" y="911.2" type="line"/>
      <point x="314.8" y="1394.8" type="line"/>
      <point x="314.8" y="1430.0" type="line"/>
      <point x="72.0" y="1430.0" type="line"/>
      <point x="72.0" y="1394.8" type="line"/>
    </contour>
  </outline>
</glyph>
<glyph name="parenright" format="2">
  <advance width="556.6"/>
  <unicode hex="0029"/>
  <outline>
    <contour>
      <point x="309.4" y="620.4" type="curve" smooth="yes"/>
      <point x="309.4" y="329.40000000000003"/>
      <point x="251.0" y="109.0"/>
      <point x="51.4" y="-228.39999999999998" type="curve"/>
      <point x="79.0" y="-245.2" type="line"/>
      <point x="399.0" y="167.4"/>
      <point x="480.59999999999997" y="342.40000000000003"/>
      <point x="480.59999999999997" y="620.4" type="curve" smooth="yes"/>
      <point x="480.59999999999997" y="898.4000000000001"/>
      <point x="399.0" y="1074.2"/>
      <point x="79.0" y="1486.8" type="curve"/>
      <point x="51.4" y="1470.0" type="line"/>
      <point x="251.0" y="1132.6000000000001"/>
      <point x="309.4" y="911.4"/>
    </contour>
  </outline>
</glyph>
<glyph name="asterisk" format="2">
  <advance width="788.0"/>
  <unicode hex="002A"/>
  <outline>
    <contour>
      <point x="532.0" y="856.8" type="line"/>
      <point x="471.4" y="1097.6000000000001" type="line"/>
      <point x="711.4" y="1155.1999999999998" type="line"/>
      <point x="709.4" y="1182.4" type="line"/>
      <point x="463.6" y="1198.8" type="line"/>
      <point x="488.8" y="1447.0" type="line"/>
      <point x="462.0" y="1454.2" type="line"/>
      <point x="366.0" y="1223.0" type="line"/>
      <point x="136.2" y="1322.0" type="line"/>
      <point x="121.0" y="1296.8" type="line"/>
      <point x="312.20000000000005" y="1137.2" type="line"/>
      <point x="148.4" y="950.2" type="line"/>
      <point x="167.20000000000002" y="929.5999999999999" type="line"/>
      <point x="378.0" y="1059.2" type="line"/>
      <point x="507.2" y="847.0" type="line"/>
    </contour>
  </outline>
</glyph>
<glyph name="plus" format="2">
  <advance width="1150.0"/>
  <unicode hex="002B"/>
  <outline>
    <contour>
      <point x="539.0" y="923.0" type="line"/>
      <point x="539.0" y="101.0" type="line"/>
      <point x="611.0" y="101.0" type="line"/>
      <point x="611.0" y="923.0" type="line"/>
    </contour>
    <contour>
      <point x="986.0" y="548.0" type="line"/>
      <point x="164.0" y="548.0" type="line"/>
      <point x="164.0" y="476.0" type="line"/>
      <point x="986.0" y="476.0" type="line"/>
    </contour>
  </outline>
</glyph>
<glyph name="hyphen" format="2">
  <advance width="658.4"/>
  <unicode hex="002D"/>
  <outline>
    <contour>
      <point x="120.80000000000001" y="582.0" type="line"/>
      <point x="120.80000000000001" y="453.2" type="line"/>
      <point x="537.6" y="453.2" type="line"/>
      <point x="537.6" y="582.0" type="line"/>
    </contour>
  </outline>
</glyph>
<glyph name="zero" format="2">
  <advance width="1240.0"/>
  <unicode hex="0030"/>
  <outline>
    <contour>
      <point x="623.4" y="31.400000000000002" type="curve" smooth="yes"/>
      <point x="442.2681318681319" y="31.400000000000002"/>
      <point x="333.40000000000003" y="278.79999999999995"/>
      <point x="333.40000000000003" y="751.0" type="curve" smooth="yes"/>
      <point x="333.40000000000003" y="1173.4"/>
      <point x="439.5550561797753" y="1398.6000000000001"/>
      <point x="616.8" y="1398.6000000000001" type="curve" smooth="yes"/>
      <point x="797.9318681318681" y="1398.6000000000001"/>
      <point x="906.8000000000001" y="1151.2"/>
      <point x="906.8000000000001" y="679.0" type="curve" smooth="yes"/>
      <point x="906.8000000000001" y="256.6"/>
      <point x="800.6449438202249" y="31.400000000000002"/>
    </contour>
    <contour>
      <point x="625.6" y="1452.0" type="curve" smooth="yes"/>
      <point x="301.57345132743365" y="1452.0"/>
      <point x="75.8" y="1152.6"/>
      <point x="75.8" y="713.6" type="curve" smooth="yes"/>
      <point x="75.8" y="274.40000000000003"/>
      <point x="290.3771019677996" y="-22.0"/>
      <point x="614.6" y="-22.0" type="curve" smooth="yes"/>
      <point x="938.6265486725665" y="-22.0"/>
      <point x="1164.4" y="277.40000000000003"/>
      <point x="1164.4" y="716.4" type="curve" smooth="yes"/>
      <point x="1164.4" y="1155.6000000000001"/>
      <point x="949.8228980322006" y="1452.0"/>
    </contour>
  </outline>
</glyph>
<glyph name="D" format="2">
  <advance width="1573.8000000000002"/>
  <unicode hex="0044"/>
  <anchor x="794.4" y="1430.0" name="UCtop"/>
  <anchor x="794.4" y="0.0" name="bottom"/>
  <outline>
    <contour>
      <point x="1211.2" y="726.5999999999999" type="curve" smooth="yes"/>
      <point x="1211.2" y="253.98903703703704"/>
      <point x="1005.4000000000001" y="68.0"/>
      <point x="648.4" y="68.0" type="curve" smooth="yes"/>
      <point x="362.59999999999997" y="68.0" type="line"/>
      <point x="354.4" y="0.0" type="line"/>
      <point x="685.8" y="0.0" type="line" smooth="yes"/>
      <point x="1140.8000000000002" y="0.0"/>
      <point x="1484.8000000000002" y="253.0"/>
      <point x="1484.8000000000002" y="748.0" type="curve" smooth="yes"/>
      <point x="1484.8000000000002" y="1182.0"/>
      <point x="1189.0" y="1430.0"/>
      <point x="671.8" y="1430.0" type="curve" smooth="yes"/>
      <point x="354.4" y="1430.0" type="line"/>
      <point x="362.59999999999997" y="1362.0" type="line"/>
      <point x="614.1999999999999" y="1362.0" type="line" smooth="yes"/>
      <point x="1008.0" y="1362.0"/>
      <point x="1211.2" y="1152.9333333333332"/>
    </contour>
    <contour>
      <point x="63.8" y="0.0" type="line"/>
      <point x="502.0" y="0.0" type="line"/>
      <point x="502.0" y="1430.0" type="line"/>
      <point x="63.8" y="1430.0" type="line"/>
      <point x="63.8" y="1399.0" type="line"/>
      <point x="235.60000000000002" y="1357.0" type="line"/>
      <point x="235.60000000000002" y="74.0" type="line"/>
      <point x="63.8" y="30.799999999999997" type="line"/>
    </contour>
  </outline>
</glyph>
<glyph name="E" format="2">
  <advance width="1379.0"/>
  <unicode hex="0045"/>
  <anchor x="697.6" y="1430.0" name="UCtop"/>
  <anchor x="1173.8" y="0.0" name="right"/>
  <anchor x="701.6" y="0.0" name="bottom"/>
  <outline>
    <contour>
      <point x="960.1999999999999" y="1047.0" type="line"/>
      <point x="936.2" y="1047.0" type="line"/>
      <point x="819.6" y="790.8" type="line"/>
      <point x="372.4" y="763.4" type="line"/>
      <point x="372.4" y="729.8000000000001" type="line"/>
      <point x="819.6" y="706.0" type="line"/>
      <point x="936.2" y="447.0" type="line"/>
      <point x="960.1999999999999" y="447.0" type="line"/>
      <point x="922.1999999999999" y="746.0" type="line"/>
    </contour>
    <contour>
      <point x="1276.0" y="1022.9999999999999" type="line"/>
      <point x="1201.6000000000001" y="1491.0" type="line"/>
      <point x="1191.0" y="1491.0" type="line"/>
      <point x="1054.3999999999999" y="1430.0" type="line"/>
      <point x="332.79999999999995" y="1430.0" type="line"/>
      <point x="332.79999999999995" y="1362.0" type="line"/>
      <point x="1187.4" y="1362.0" type="line"/>
      <point x="1031.0" y="1392.6" type="line"/>
      <point x="1248.2" y="1014.2" type="line"/>
    </contour>
    <contour>
      <point x="1056.8" y="38.8" type="line"/>
      <point x="1209.0" y="68.0" type="line"/>
      <point x="332.79999999999995" y="68.0" type="line"/>
      <point x="332.79999999999995" y="0.0" type="line"/>
      <point x="1083.2" y="0.0" type="line"/>
      <point x="1213.4" y="-59.8" type="line"/>
      <point x="1225.8" y="-59.8" type="line"/>
      <point x="1336.6" y="414.40000000000003" type="line"/>
      <point x="1307.6" y="422.2" type="line"/>
    </contour>
    <contour>
      <point x="63.8" y="0.0" type="line"/>
      <point x="502.0" y="0.0" type="line"/>
      <point x="502.0" y="1430.0" type="line"/>
      <point x="63.8" y="1430.0" type="line"/>
      <point x="63.8" y="1399.0" type="line"/>
      <point x="235.60000000000002" y="1357.0" type="line"/>
      <point x="235.60000000000002" y="74.0" type="line"/>
      <point x="63.8" y="30.799999999999997" type="line"/>
    </contour>
  </outline>
</glyph>
<glyph name="G" format="2">
  <advance width="1553.2"/>
  <unicode hex="0047"/>
  <anchor x="815.6" y="1430.0" name="UCtop"/>
  <anchor x="831.2" y="0.0" name="bottom"/>
  <outline>
    <contour>
      <point x="1357.0" y="108.2" type="line"/>
      <point x="1357.0" y="567.4" type="line"/>
      <point x="1488.2" y="607.0" type="line"/>
      <point x="1488.2" y="639.8" type="line"/>
      <point x="901.8" y="639.8" type="line"/>
      <point x="901.8" y="607.0" type="line"/>
      <point x="1107.6000000000001" y="561.4" type="line"/>
      <point x="1107.6000000000001" y="19.8" type="line"/>
      <point x="1155.0" y="89.80000000000001" type="line"/>
      <point x="1098.8" y="47.0"/>
      <point x="1011.0" y="24.2"/>
      <point x="915.2" y="24.2" type="curve" smooth="yes"/>
      <point x="619.0" y="24.2"/>
      <point x="363.6" y="264.0"/>
      <point x="363.6" y="761.1999999999999" type="curve" smooth="yes"/>
      <point x="363.6" y="1240.0"/>
      <point x="588.1999999999999" y="1397.8"/>
      <point x="846.5999999999999" y="1397.8" type="curve" smooth="yes"/>
      <point x="1006.2" y="1397.8"/>
      <point x="1143.8" y="1322.8"/>
      <point x="1268.1999999999998" y="1201.6000000000001" type="curve"/>
      <point x="1104.6" y="1370.2" type="line"/>
      <point x="1345.1999999999998" y="978.1999999999999" type="line"/>
      <point x="1372.6" y="983.2" type="line"/>
      <point x="1277.6" y="1489.2" type="line"/>
      <point x="1263.2" y="1489.2" type="line"/>
      <point x="1137.2" y="1384.8" type="line"/>
      <point x="1262.0" y="1396.0" type="line"/>
      <point x="1160.0" y="1427.6"/>
      <point x="1037.0" y="1452.0"/>
      <point x="884.1999999999999" y="1452.0" type="curve" smooth="yes"/>
      <point x="413.8" y="1452.0"/>
      <point x="87.0" y="1158.8"/>
      <point x="87.0" y="728.8" type="curve" smooth="yes"/>
      <point x="87.0" y="229.6"/>
      <point x="437.4" y="-22.0"/>
      <point x="901.0" y="-22.0" type="curve" smooth="yes"/>
      <point x="1063.2" y="-22.0"/>
      <point x="1260.8" y="4.8"/>
      <point x="1478.6" y="79.0" type="curve"/>
      <point x="1478.6" y="108.19999999999999" type="line"/>
    </contour>
  </outline>
</glyph>
<glyph name="I" format="2">
  <advance width="737.6"/>
  <unicode hex="0049"/>
  <anchor x="368.8" y="1430.0" name="UCtop"/>
  <anchor x="537.1999999999999" y="0.0" name="right"/>
  <anchor x="368.8" y="0.0" name="bottom"/>
  <outline>
    <contour>
      <point x="673.8" y="30.799999999999997" type="line"/>
      <point x="502.0" y="74.0" type="line"/>
      <point x="502.0" y="1357.0" type="line"/>
      <point x="673.8" y="1399.0" type="line"/>
      <point x="673.8" y="1430.0" type="line"/>
      <point x="63.8" y="1430.0" type="line"/>
      <point x="63.8" y="1399.0" type="line"/>
      <point x="235.60000000000002" y="1357.0" type="line"/>
      <point x="235.60000000000002" y="74.0" type="line"/>
      <point x="63.8" y="30.799999999999997" type="line"/>
      <point x="63.8" y="0.0" type="line"/>
      <point x="673.8" y="0.0" type="line"/>
    </contour>
  </outline>
</glyph>
<glyph name="N" format="2">
  <advance width="1566.6000000000001"/>
  <unicode hex="004E"/>
  <anchor x="815.6" y="1430.0" name="UCtop"/>
  <anchor x="806.6" y="0.0" name="bottom"/>
  <outline>
    <contour>
      <point x="243.0" y="73.60000000000001" type="line"/>
      <point x="69.2" y="30.799999999999997" type="line"/>
      <point x="69.2" y="0.0" type="line"/>
      <point x="500.99999999999994" y="0.0" type="line"/>
      <point x="500.99999999999994" y="30.799999999999997" type="line"/>
      <point x="310.4" y="73.60000000000001" type="line"/>
      <point x="310.4" y="1353.8" type="line"/>
      <point x="283.6" y="1321.8" type="line"/>
      <point x="1250.2" y="-16.0" type="line"/>
      <point x="1341.6" y="-16.0" type="line"/>
      <point x="1341.6" y="1356.1999999999998" type="line"/>
      <point x="1515.3999999999999" y="1399.0" type="line"/>
      <point x="1515.3999999999999" y="1430.0" type="line"/>
      <point x="1080.4" y="1430.0" type="line"/>
      <point x="1080.4" y="1399.0" type="line"/>
      <point x="1271.0" y="1356.1999999999998" type="line"/>
      <point x="1271.0" y="136.4" type="line"/>
      <point x="1324.4" y="306.59999999999997" type="line"/>
      <point x="515.2" y="1430.0" type="line"/>
      <point x="44.2" y="1430.0" type="line"/>
      <point x="44.2" y="1400.8" type="line"/>
      <point x="243.0" y="1338.0" type="line"/>
    </contour>
  </outline>
</glyph>
<glyph name="Q" format="2">
  <advance width="1616.8"/>
  <unicode hex="0051"/>
  <anchor x="809.0" y="1430.0" name="UCtop"/>
  <anchor x="809.0" y="-443.0" name="bottom"/>
  <outline>
    <contour>
      <point x="942.4000000000001" y="-298.4" type="line" smooth="yes"/>
      <point x="1091.4" y="-410.20000000000005"/>
      <point x="1192.8" y="-466.59999999999997"/>
      <point x="1378.2" y="-466.59999999999997" type="curve" smooth="yes"/>
      <point x="1473.1999999999998" y="-466.59999999999997"/>
      <point x="1587.3999999999999" y="-443.79999999999995"/>
      <point x="1726.2" y="-401.6" type="curve"/>
      <point x="1726.2" y="-358.4" type="line"/>
      <point x="1595.3999999999999" y="-379.4"/>
      <point x="1487.4" y="-362.2"/>
      <point x="1245.1999999999998" y="-227.20000000000002" type="curve" smooth="yes"/>
      <point x="804.2" y="19.0" type="line"/>
      <point x="804.2" y="-0.8" type="line"/>
      <point x="1232.6000000000001" y="-30.799999999999997"/>
      <point x="1528.8000000000002" y="301.40000000000003"/>
      <point x="1528.8000000000002" y="717.8" type="curve" smooth="yes"/>
      <point x="1528.8000000000002" y="1152.2"/>
      <point x="1233.6" y="1452.0"/>
      <point x="814.1999999999999" y="1452.0" type="curve" smooth="yes"/>
      <point x="390.6" y="1452.0"/>
      <point x="88.2" y="1147.3999999999999"/>
      <point x="88.2" y="713.8" type="curve" smooth="yes"/>
      <point x="88.2" y="426.8"/>
      <point x="204.20000000000002" y="229.4"/>
      <point x="422.8" y="70.80000000000001" type="curve" smooth="yes"/>
    </contour>
    <contour>
      <point x="819.0" y="33.8" type="curve" smooth="yes"/>
      <point x="544.2" y="33.8"/>
      <point x="358.8" y="295.40000000000003"/>
      <point x="358.8" y="758.4" type="curve" smooth="yes"/>
      <point x="358.8" y="1168.6"/>
      <point x="529.0" y="1397.0"/>
      <point x="798.0" y="1397.0" type="curve" smooth="yes"/>
      <point x="1071.2" y="1397.0"/>
      <point x="1257.4" y="1134.6000000000001"/>
      <point x="1257.4" y="671.6" type="curve" smooth="yes"/>
      <point x="1257.4" y="262.2"/>
      <point x="1087.2" y="33.8"/>
    </contour>
  </outline>
</glyph>
<glyph name="R" format="2">
  <advance width="1446.8"/>
  <unicode hex="0052"/>
  <anchor x="685.6" y="1430.0" name="UCtop"/>
  <anchor x="791.6" y="0.0" name="bottom"/>
  <outline>
    <contour>
      <point x="657.4" y="770.4" type="curve" smooth="yes"/>
      <point x="289.8" y="770.4" type="line"/>
      <point x="316.59999999999997" y="708.8" type="line"/>
      <point x="651.1999999999999" y="708.8" type="line" smooth="yes"/>
      <point x="737.2" y="708.8"/>
      <point x="778.8" y="679.8"/>
      <point x="844.0" y="534.8000000000001" type="curve" smooth="yes"/>
      <point x="1005.6" y="172.4" type="line" smooth="yes"/>
      <point x="1082.8" y="-2.0"/>
      <point x="1148.3999999999999" y="-26.2"/>
      <point x="1487.6" y="0.0" type="curve"/>
      <point x="1487.6" y="41.800000000000004" type="line"/>
      <point x="1374.6" y="40.800000000000004"/>
      <point x="1339.8" y="56.4"/>
      <point x="1266.2" y="216.6" type="curve" smooth="yes"/>
      <point x="1127.6" y="520.0" type="line" smooth="yes"/>
      <point x="1060.6000000000001" y="671.8000000000001"/>
      <point x="982.6" y="737.2"/>
      <point x="789.0" y="741.4" type="curve"/>
      <point x="789.0" y="738.2" type="line"/>
      <point x="1081.6" y="752.4"/>
      <point x="1232.6000000000001" y="906.2"/>
      <point x="1232.6000000000001" y="1085.6000000000001" type="curve" smooth="yes"/>
      <point x="1232.6000000000001" y="1283.8"/>
      <point x="1098.6" y="1430.0"/>
      <point x="698.4" y="1430.0" type="curve" smooth="yes"/>
      <point x="320.59999999999997" y="1430.0" type="line"/>
      <point x="294.4" y="1368.4" type="line"/>
      <point x="610.1999999999999" y="1368.4" type="line" smooth="yes"/>
      <point x="868.4" y="1368.4"/>
      <point x="967.2" y="1262.0"/>
      <point x="967.2" y="1076.8" type="curve" smooth="yes"/>
      <point x="967.2" y="875.1999999999999"/>
      <point x="852.8" y="770.4"/>
    </contour>
    <contour>
      <point x="502.8" y="1430.0" type="line"/>
      <point x="62.599999999999994" y="1430.0" type="line"/>
      <point x="62.599999999999994" y="1399.0" type="line"/>
      <point x="236.4" y="1355.3999999999999" type="line"/>
      <point x="236.4" y="75.60000000000001" type="line"/>
      <point x="62.599999999999994" y="30.799999999999997" type="line"/>
      <point x="62.599999999999994" y="0.0" type="line"/>
      <point x="676.5999999999999" y="0.0" type="line"/>
      <point x="676.5999999999999" y="30.799999999999997" type="line"/>
      <point x="502.8" y="75.60000000000001" type="line"/>
    </contour>
  </outline>
</glyph>
<glyph name="T" format="2">
  <advance width="1474.0"/>
  <unicode hex="0054"/>
  <anchor x="737.0" y="1430.0" name="UCtop"/>
  <anchor x="737.0" y="0.0" name="bottom"/>
  <outline>
    <contour>
      <point x="603.8" y="1398.0" type="line"/>
      <point x="603.8" y="75.60000000000001" type="line"/>
      <point x="430.0" y="30.799999999999997" type="line"/>
      <point x="430.0" y="0.0" type="line"/>
      <point x="1044.0" y="0.0" type="line"/>
      <point x="1044.0" y="30.799999999999997" type="line"/>
      <point x="870.1999999999999" y="75.60000000000001" type="line"/>
      <point x="870.1999999999999" y="1398.0" type="line"/>
    </contour>
    <contour>
      <point x="1312.4" y="1362.0" type="line"/>
      <point x="1195.0" y="1384.8" type="line"/>
      <point x="1404.8" y="972.6" type="line"/>
      <point x="1435.4" y="979.6" type="line"/>
      <point x="1371.3999999999999" y="1504.8000000000002" type="line"/>
      <point x="1353.0" y="1504.8000000000002" type="line"/>
      <point x="1186.8" y="1410.8" type="line"/>
      <point x="1288.4" y="1430.0" type="line"/>
      <point x="185.6" y="1430.0" type="line"/>
      <point x="287.2" y="1410.8" type="line"/>
      <point x="121.0" y="1504.8000000000002" type="line"/>
      <point x="102.60000000000001" y="1504.8000000000002" type="line"/>
      <point x="38.6" y="979.6" type="line"/>
      <point x="69.2" y="972.6" type="line"/>
      <point x="279.0" y="1384.8" type="line"/>
      <point x="161.6" y="1362.0" type="line"/>
    </contour>
  </outline>
</glyph>
<glyph name="X" format="2">
  <advance width="1502.0"/>
  <unicode hex="0058"/>
  <anchor x="790.2" y="1430.0" name="UCtop"/>
  <anchor x="722.2" y="0.0" name="bottom"/>
  <outline>
    <contour>
      <point x="719.4" y="681.4" type="line"/>
      <point x="802.0" y="748.0" type="line"/>
      <point x="1281.6000000000001" y="1348.6000000000001" type="line"/>
      <point x="1431.8" y="1399.0" type="line"/>
      <point x="1431.8" y="1430.0" type="line"/>
      <point x="1016.0" y="1430.0" type="line"/>
      <point x="1016.0" y="1399.0" type="line"/>
      <point x="1200.0" y="1351.6000000000001" type="line"/>
      <point x="762.6" y="798.2" type="line"/>
      <point x="681.4" y="732.6" type="line"/>
      <point x="150.6" y="81.39999999999999" type="line"/>
      <point x="-0.1999999999999993" y="31.0" type="line"/>
      <point x="-0.1999999999999993" y="0.0" type="line"/>
      <point x="415.8" y="0.0" type="line"/>
      <point x="415.8" y="31.0" type="line"/>
      <point x="232.0" y="78.39999999999999" type="line"/>
    </contour>
    <contour>
      <point x="1066.6000000000001" y="74.8" type="line"/>
      <point x="889.1999999999999" y="30.799999999999997" type="line"/>
      <point x="889.1999999999999" y="0.0" type="line"/>
      <point x="1524.8" y="0.0" type="line"/>
      <point x="1524.8" y="30.799999999999997" type="line"/>
      <point x="1369.6" y="76.8" type="line"/>
      <point x="838.8000000000001" y="843.4" type="line"/>
      <point x="826.0" y="861.4" type="line"/>
      <point x="483.0" y="1355.2" type="line"/>
      <point x="661.0" y="1399.0" type="line"/>
      <point x="661.0" y="1430.0" type="line"/>
      <point x="25.2" y="1430.0" type="line"/>
      <point x="25.2" y="1399.0" type="line"/>
      <point x="181.0" y="1353.2" type="line"/>
      <point x="651.2" y="673.8" type="line"/>
      <point x="667.6" y="649.5999999999999" type="line"/>
    </contour>
  </outline>
</glyph>
<glyph name="Y" format="2">
  <advance width="1435.8"/>
  <unicode hex="0059"/>
  <anchor x="765.5999999999999" y="1430.0" name="UCtop"/>
  <anchor x="738.2" y="0.0" name="bottom"/>
  <outline>
    <contour>
      <point x="126.80000000000001" y="1354.4" type="line"/>
      <point x="605.0" y="660.4" type="line"/>
      <point x="605.0" y="74.0" type="line"/>
      <point x="433.2" y="30.799999999999997" type="line"/>
      <point x="433.2" y="0.0" type="line"/>
      <point x="1043.2" y="0.0" type="line"/>
      <point x="1043.2" y="30.799999999999997" type="line"/>
      <point x="871.4" y="74.0" type="line"/>
      <point x="871.4" y="660.8000000000001" type="line"/>
      <point x="1286.2" y="1348.8000000000002" type="line"/>
      <point x="1438.6" y="1399.0" type="line"/>
      <point x="1438.6" y="1430.0" type="line"/>
      <point x="1029.8" y="1430.0" type="line"/>
      <point x="1029.8" y="1399.0" type="line"/>
      <point x="1214.3999999999999" y="1351.8000000000002" type="line"/>
      <point x="822.6" y="692.8000000000001" type="line"/>
      <point x="870.0" y="695.4" type="line"/>
      <point x="422.79999999999995" y="1356.4" type="line"/>
      <point x="607.6" y="1399.0" type="line"/>
      <point x="607.6" y="1430.0" type="line"/>
      <point x="-26.400000000000002" y="1430.0" type="line"/>
      <point x="-26.400000000000002" y="1399.0" type="line"/>
    </contour>
  </outline>
</glyph>
<glyph name="bracketleft" format="2">
  <advance width="591.0"/>
  <unicode hex="005B"/>
  <outline>
    <contour>
      <point x="183.20000000000002" y="-228.0" type="line"/>
      <point x="571.4" y="-228.0" type="line"/>
      <point x="571.4" y="-196.8" type="line"/>
      <point x="344.40000000000003" y="-171.6" type="line"/>
      <point x="344.40000000000003" y="1407.6" type="line"/>
      <point x="571.4" y="1432.8" type="line"/>
      <point x="571.4" y="1464.0" type="line"/>
      <point x="183.20000000000002" y="1464.0" type="line"/>
    </contour>
  </outline>
</glyph>
<glyph name="asciicircum" format="2">
  <advance width="1150.0"/>
  <unicode hex="005E"/>
  <outline>
    <contour>
      <point x="566.6" y="1359.0" type="line"/>
      <point x="892.2" y="662.0" type="line"/>
      <point x="970.4" y="662.0" type="line"/>
      <point x="608.4" y="1430.0" type="line"/>
      <point x="539.6" y="1430.0" type="line"/>
      <point x="179.6" y="662.0" type="line"/>
      <point x="257.8" y="662.0" type="line"/>
      <point x="580.4" y="1359.0" type="line"/>
    </contour>
  </outline>
</glyph>
<glyph name="b" format="2">
  <advance width="1190.6000000000001"/>
  <unicode hex="0062"/>
  <anchor x="622.8000000000001" y="1451.0" name="UCtop"/>
  <anchor x="592.8000000000001" y="0.0" name="bottom"/>
  <outline>
    <contour>
      <point x="200.6" y="63.0" type="line"/>
      <point x="307.2" y="3.6"/>
      <point x="435.20000000000005" y="-22.0"/>
      <point x="559.5999999999999" y="-22.0" type="curve" smooth="yes"/>
      <point x="887.4" y="-22.0"/>
      <point x="1119.8" y="192.0"/>
      <point x="1119.8" y="567.0" type="curve" smooth="yes"/>
      <point x="1119.8" y="861.8"/>
      <point x="966.8" y="1046.0"/>
      <point x="709.2" y="1046.0" type="curve" smooth="yes"/>
      <point x="597.8" y="1046.0"/>
      <point x="488.8" y="995.8"/>
      <point x="311.4" y="805.6" type="curve"/>
      <point x="323.4" y="782.2" type="line"/>
      <point x="405.0" y="864.8000000000001"/>
      <point x="488.6" y="894.2"/>
      <point x="587.4" y="894.2" type="curve" smooth="yes"/>
      <point x="779.8" y="894.2"/>
      <point x="873.0" y="767.4"/>
      <point x="873.0" y="483.8" type="curve" smooth="yes"/>
      <point x="873.0" y="178.39999999999998"/>
      <point x="772.2" y="31.0"/>
      <point x="597.8" y="31.0" type="curve" smooth="yes"/>
      <point x="471.2" y="31.0"/>
      <point x="378.0" y="116.2"/>
      <point x="378.0" y="239.6" type="curve" smooth="yes"/>
      <point x="378.0" y="1310.4" type="line"/>
      <point x="388.40000000000003" y="1486.0" type="line"/>
      <point x="374.2" y="1486.0" type="line"/>
      <point x="-14.0" y="1401.4" type="line"/>
      <point x="-14.0" y="1382.8" type="line"/>
      <point x="64.0" y="1328.5111111111112"/>
      <point x="117.2" y="1291.0962962962963"/>
      <point x="143.2" y="1273.0" type="curve"/>
      <point x="143.2" y="223.4" type="line"/>
      <point x="100.0" y="-28.2" type="line"/>
      <point x="113.8" y="-36.0" type="line"/>
      <point x="324.4" y="85.4" type="line"/>
    </contour>
  </outline>
</glyph>
<glyph name="c" format="2">
  <advance width="967.8"/>
  <unicode hex="0063"/>
  <anchor x="536.8" y="1024.0" name="top"/>
  <anchor x="931.6" y="0.0" name="right"/>
  <anchor x="540.2" y="0.0" name="bottom"/>
  <outline>
    <contour>
      <point x="609.0" y="1046.0" type="curve" smooth="yes"/>
      <point x="301.8" y="1046.0"/>
      <point x="69.0" y="813.0"/>
      <point x="69.0" y="493.6" type="curve" smooth="yes"/>
      <point x="69.0" y="160.0"/>
      <point x="263.20000000000005" y="-22.0"/>
      <point x="527.5999999999999" y="-22.0" type="curve" smooth="yes"/>
      <point x="691.0" y="-22.0"/>
      <point x="811.0" y="50.0"/>
      <point x="935.6" y="264.2" type="curve"/>
      <point x="917.8" y="278.2" type="line"/>
      <point x="845.4" y="187.0"/>
      <point x="747.5999999999999" y="147.4"/>
      <point x="640.0" y="147.4" type="curve" smooth="yes"/>
      <point x="420.2" y="147.4"/>
      <point x="301.8" y="280.4"/>
      <point x="301.8" y="615.1999999999999" type="curve" smooth="yes"/>
      <point x="301.8" y="878.5999999999999"/>
      <point x="393.0" y="988.8"/>
      <point x="524.4000000000001" y="988.8" type="curve" smooth="yes"/>
      <point x="650.8" y="988.8"/>
      <point x="768.4" y="781.4"/>
      <point x="798.0" y="781.4" type="curve" smooth="yes"/>
      <point x="862.0" y="781.4"/>
      <point x="908.0" y="823.0"/>
      <point x="908.0" y="889.8" type="curve" smooth="yes"/>
      <point x="908.0" y="970.4"/>
      <point x="820.8" y="1046.0"/>
    </contour>
  </outline>
</glyph>
<glyph name="g" format="2">
  <advance width="1047.6000000000001"/>
  <unicode hex="0067"/>
  <anchor x="478.2" y="1024.0" name="top"/>
  <anchor x="499.8" y="-443.0" name="bottom"/>
  <outline>
    <contour>
      <point x="451.20000000000005" y="-465.0" type="curve" smooth="yes"/>
      <point x="829.4" y="-465.0"/>
      <point x="1006.4000000000001" y="-299.8"/>
      <point x="1006.4" y="-118.2" type="curve" smooth="yes"/>
      <point x="1006.4" y="46.599999999999994"/>
      <point x="879.4" y="136.2"/>
      <point x="572.4" y="163.0" type="curve" smooth="yes"/>
      <point x="313.4" y="185.8"/>
      <point x="266.40000000000003" y="211.2"/>
      <point x="266.40000000000003" y="284.4" type="curve" smooth="yes"/>
      <point x="266.40000000000003" y="324.8"/>
      <point x="298.0" y="368.6"/>
      <point x="392.0" y="375.6" type="curve"/>
      <point x="378.59999999999997" y="400.40000000000003" type="line"/>
      <point x="204.98579884373547" y="362.54095737359376"/>
      <point x="102.39999999999999" y="285.3038461538461"/>
      <point x="102.39999999999999" y="178.8" type="curve" smooth="yes"/>
      <point x="102.39999999999999" y="56.0"/>
      <point x="174.0" y="-23.8"/>
      <point x="426.2" y="-47.0" type="curve" smooth="yes"/>
      <point x="725.0" y="-68.6"/>
      <point x="839.6" y="-105.2"/>
      <point x="839.6" y="-218.4" type="curve" smooth="yes"/>
      <point x="839.6" y="-329.68019323671496"/>
      <point x="731.6222222222223" y="-414.0"/>
      <point x="505.8" y="-414.0" type="curve" smooth="yes"/>
      <point x="307.68280254777073" y="-414.0"/>
      <point x="182.4" y="-339.7402843601895"/>
      <point x="182.4" y="-212.4" type="curve" smooth="yes"/>
      <point x="182.4" y="-120.8"/>
      <point x="252.4" y="-46.8"/>
      <point x="482.6" y="-14.8" type="curve"/>
      <point x="482.8" y="1.1999999999999993" type="line"/>
      <point x="405.6" y="1.0" type="line"/>
      <point x="108.4" y="-56.400000000000006"/>
      <point x="8.4" y="-140.0"/>
      <point x="8.4" y="-239.60000000000002" type="curve" smooth="yes"/>
      <point x="8.4" y="-364.0"/>
      <point x="126.80000000000001" y="-465.0"/>
    </contour>
    <contour>
      <point x="470.79999999999995" y="362.0" type="curve" smooth="yes"/>
      <point x="703.6" y="362.0"/>
      <point x="870.8" y="504.59999999999997"/>
      <point x="870.8" y="703.4" type="curve" smooth="yes"/>
      <point x="870.8" y="904.6"/>
      <point x="705.6" y="1046.0"/>
      <point x="469.2" y="1046.0" type="curve" smooth="yes"/>
      <point x="243.6" y="1046.0"/>
      <point x="73.2" y="902.6"/>
      <point x="73.2" y="703.0" type="curve" smooth="yes"/>
      <point x="73.2" y="502.59999999999997"/>
      <point x="241.6" y="362.0"/>
    </contour>
    <contour>
      <point x="498.6" y="404.0" type="curve" smooth="yes"/>
      <point x="388.0" y="395.2"/>
      <point x="312.4" y="514.4"/>
      <point x="298.8" y="703.8000000000001" type="curve" smooth="yes"/>
      <point x="284.4" y="869.1999999999999"/>
      <point x="338.8" y="994.4"/>
      <point x="441.40000000000003" y="1004.0" type="curve" smooth="yes"/>
      <point x="556.0" y="1012.8"/>
      <point x="629.2" y="899.2"/>
      <point x="644.4000000000001" y="705.8" type="curve" smooth="yes"/>
      <point x="660.4000000000001" y="539.6"/>
      <point x="610.0" y="416.8"/>
    </contour>
    <contour>
      <point x="602.8" y="1005.8" type="line"/>
      <point x="839.8000000000001" y="990.6"/>
      <point x="894.4000000000001" y="872.0"/>
      <point x="959.8000000000001" y="872.0" type="curve" smooth="yes"/>
      <point x="1010.6" y="872.0"/>
      <point x="1062.0" y="925.1999999999999"/>
      <point x="1062.0" y="1007.0" type="curve" smooth="yes"/>
      <point x="1062.0" y="1048.6000000000001"/>
      <point x="1043.6" y="1065.0"/>
      <point x="1019.8" y="1065.0" type="curve" smooth="yes"/>
      <point x="979.2" y="1065.0"/>
      <point x="924.2" y="1012.8000000000001"/>
      <point x="557.0" y="1038.4" type="curve"/>
    </contour>
  </outline>
</glyph>
<glyph name="i" format="2">
  <advance width="581.4"/>
  <unicode hex="0069"/>
  <anchor x="290.8" y="1430.0" name="top"/>
  <anchor x="299.4" y="0.0" name="bottom"/>
  <anchor x="441.8" y="0.0" name="right"/>
  <outline>
    <contour>
      <point x="284.79999999999995" y="1186.0" type="curve" smooth="yes"/>
      <point x="376.40000000000003" y="1186.0"/>
      <point x="429.40000000000003" y="1257.8"/>
      <point x="429.40000000000003" y="1335.1999999999998" type="curve" smooth="yes"/>
      <point x="429.40000000000003" y="1411.0"/>
      <point x="376.40000000000003" y="1474.8"/>
      <point x="284.79999999999995" y="1474.8" type="curve" smooth="yes"/>
      <point x="193.4" y="1474.8"/>
      <point x="136.6" y="1411.0"/>
      <point x="136.6" y="1335.1999999999998" type="curve" smooth="yes"/>
      <point x="136.6" y="1257.8"/>
      <point x="193.4" y="1186.0"/>
    </contour>
    <contour>
      <point x="416.79999999999995" y="1054.8" type="line"/>
      <point x="408.2" y="1054.8" type="line"/>
      <point x="45.2" y="954.4" type="line"/>
      <point x="45.2" y="933.4000000000001" type="line"/>
      <point x="106.2" y="886.8920704295704"/>
      <point x="160.0" y="849.1733516483516"/>
      <point x="182.0" y="832.4" type="curve"/>
      <point x="182.0" y="59.199999999999996" type="line"/>
      <point x="50.4" y="28.2" type="line"/>
      <point x="50.4" y="0.0" type="line"/>
      <point x="546.1999999999999" y="0.0" type="line"/>
      <point x="546.1999999999999" y="28.2" type="line"/>
      <point x="416.8" y="58.6" type="line"/>
      <point x="416.8" y="855.1999999999999" type="line"/>
    </contour>
  </outline>
</glyph>
<glyph name="r" format="2">
  <advance width="855.0"/>
  <unicode hex="0072"/>
  <anchor x="443.8" y="1024.0" name="top"/>
  <anchor x="296.8" y="0.0" name="bottom"/>
  <outline>
    <contour>
      <point x="738.0" y="1043.0" type="curve" smooth="yes"/>
      <point x="662.8" y="1043.0"/>
      <point x="603.6" y="1020.8000000000001"/>
      <point x="395.0" y="797.0" type="curve"/>
      <point x="395.2" y="752.1999999999999" type="line"/>
      <point x="445.2" y="799.8"/>
      <point x="489.4" y="828.4"/>
      <point x="547.8" y="828.4" type="curve" smooth="yes"/>
      <point x="614.4" y="828.4"/>
      <point x="654.6" y="804.0"/>
      <point x="712.4000000000001" y="804.0" type="curve" smooth="yes"/>
      <point x="785.6" y="804.0"/>
      <point x="841.8" y="860.4"/>
      <point x="841.8" y="939.0" type="curve" smooth="yes"/>
      <point x="841.8" y="1003.2"/>
      <point x="801.1999999999999" y="1043.0"/>
    </contour>
    <contour>
      <point x="414.2" y="855.4" type="line"/>
      <point x="414.2" y="1054.8" type="line"/>
      <point x="405.6" y="1054.8" type="line"/>
      <point x="42.6" y="954.4" type="line"/>
      <point x="42.6" y="933.4" type="line"/>
      <point x="116.6" y="876.9805444555444"/>
      <point x="153.4" y="852.223051948052"/>
      <point x="179.4" y="832.4" type="curve"/>
      <point x="179.4" y="59.199999999999996" type="line"/>
      <point x="47.8" y="28.2" type="line"/>
      <point x="47.8" y="0.0" type="line"/>
      <point x="565.8" y="0.0" type="line"/>
      <point x="565.8" y="28.2" type="line"/>
      <point x="414.2" y="59.2" type="line"/>
    </contour>
  </outline>
</glyph>
<glyph name="v" format="2">
  <advance width="1158.0"/>
  <unicode hex="0076"/>
  <anchor x="604.4" y="1024.0" name="top"/>
  <anchor x="588.4" y="0.0" name="bottom"/>
  <outline>
    <contour>
      <point x="1038.8" y="962.4" type="line"/>
      <point x="1153.0" y="991.0" type="line"/>
      <point x="1153.0" y="1024.0" type="line"/>
      <point x="822.6" y="1024.0" type="line"/>
      <point x="822.6" y="991.0" type="line"/>
      <point x="958.0" y="962.0" type="line"/>
      <point x="657.4" y="170.4" type="line"/>
      <point x="705.8000000000001" y="178.4" type="line"/>
      <point x="361.2" y="956.4000000000001" type="line"/>
      <point x="498.2" y="991.0" type="line"/>
      <point x="498.2" y="1024.0" type="line"/>
      <point x="-21.4" y="1024.0" type="line"/>
      <point x="-21.4" y="991.6" type="line"/>
      <point x="99.80000000000001" y="952.4" type="line"/>
      <point x="551.0" y="-20.8" type="line"/>
      <point x="634.4" y="-20.8" type="line"/>
    </contour>
  </outline>
</glyph>
<glyph name="x" format="2">
  <advance width="1142.6000000000001"/>
  <unicode hex="0078"/>
  <anchor x="592.0" y="1024.0" name="top"/>
  <anchor x="574.0" y="0.0" name="bottom"/>
  <outline>
    <contour>
      <point x="1024.0" y="67.0" type="line"/>
      <point x="652.6" y="600.8000000000001" type="line"/>
      <point x="644.6" y="610.6" type="line"/>
      <point x="406.59999999999997" y="958.8000000000001" type="line"/>
      <point x="536.6" y="991.0" type="line"/>
      <point x="536.6" y="1024.0" type="line"/>
      <point x="12.399999999999999" y="1024.0" type="line"/>
      <point x="12.399999999999999" y="991.0" type="line"/>
      <point x="144.0" y="951.0" type="line"/>
      <point x="486.4" y="456.0" type="line"/>
      <point x="496.2" y="443.4" type="line"/>
      <point x="757.2" y="64.0" type="line"/>
      <point x="621.2" y="32.800000000000004" type="line"/>
      <point x="621.2" y="0.0" type="line"/>
      <point x="1154.3999999999999" y="0.0" type="line"/>
      <point x="1154.3999999999999" y="32.800000000000004" type="line"/>
    </contour>
    <contour>
      <point x="553.0" y="490.0" type="line"/>
      <point x="595.8" y="498.59999999999997" type="line"/>
      <point x="981.2" y="962.0" type="line"/>
      <point x="1105.2" y="991.0" type="line"/>
      <point x="1105.2" y="1024.0" type="line"/>
      <point x="766.4" y="1024.0" type="line"/>
      <point x="766.4" y="991.0" type="line"/>
      <point x="897.8000000000001" y="962.8000000000001" type="line"/>
      <point x="577.1999999999999" y="556.4000000000001" type="line"/>
      <point x="535.1999999999999" y="547.8000000000001" type="line"/>
      <point x="133.8" y="62.0" type="line"/>
      <point x="1.8" y="33.0" type="line"/>
      <point x="1.8" y="0.0" type="line"/>
      <point x="343.0" y="0.0" type="line"/>
      <point x="343.0" y="33.0" type="line"/>
      <point x="219.6" y="61.199999999999996" type="line"/>
    </contour>
  </outline>
</glyph>
<glyph name="y" format="2">
  <advance width="1135.8"/>
  <unicode hex="0079"/>
  <anchor x="605.0" y="1024.0" name="top"/>
  <anchor x="778.8" y="-128.4" name="bottom"/>
  <outline>
    <contour>
      <point x="722.0" y="222.4" type="line"/>
      <point x="366.20000000000005" y="956.4000000000001" type="line"/>
      <point x="503.2" y="991.0" type="line"/>
      <point x="503.2" y="1024.0" type="line"/>
      <point x="-15.6" y="1024.0" type="line"/>
      <point x="-15.6" y="991.6" type="line"/>
      <point x="105.60000000000001" y="952.4" type="line"/>
      <point x="599.1999999999999" y="-47.2" type="line"/>
    </contour>
    <contour>
      <point x="262.2" y="-463.0" type="curve" smooth="yes"/>
      <point x="405.4" y="-463.0"/>
      <point x="505.0" y="-383.4"/>
      <point x="602.4" y="-128.6" type="curve" smooth="yes"/>
      <point x="1015.4" y="962.4000000000001" type="line"/>
      <point x="1137.6" y="991.0" type="line"/>
      <point x="1137.6" y="1024.0" type="line"/>
      <point x="792.2" y="1024.0" type="line"/>
      <point x="792.2" y="991.0" type="line"/>
      <point x="932.4" y="962.0" type="line"/>
      <point x="674.4" y="190.4" type="line"/>
      <point x="613.0" y="42.79999999999999" type="line"/>
      <point x="541.2" y="-124.0" type="line" smooth="yes"/>
      <point x="484.8" y="-253.2"/>
      <point x="430.8" y="-282.0"/>
      <point x="334.0" y="-282.0" type="curve" smooth="yes"/>
      <point x="251.20000000000002" y="-282.0"/>
      <point x="198.2" y="-235.39999999999998"/>
      <point x="174.39999999999998" y="-235.39999999999998" type="curve" smooth="yes"/>
      <point x="145.2" y="-235.39999999999998"/>
      <point x="107.60000000000001" y="-267.6"/>
      <point x="107.60000000000001" y="-327.79999999999995" type="curve" smooth="yes"/>
      <point x="107.60000000000001" y="-415.8"/>
      <point x="173.2" y="-463.0"/>
    </contour>
  </outline>
</glyph>
<glyph name="z" format="2">
  <advance width="977.6"/>
  <unicode hex="007A"/>
  <anchor x="516.0" y="1024.0" name="top"/>
  <anchor x="494.0" y="0.0" name="bottom"/>
  <outline>
    <contour>
      <point x="61.6" y="0.0" type="line"/>
      <point x="854.2" y="0.0" type="line"/>
      <point x="953.0" y="391.20000000000005" type="line"/>
      <point x="917.4" y="391.20000000000005" type="line"/>
      <point x="726.4000000000001" y="22.6" type="line"/>
      <point x="806.8" y="71.19999999999999" type="line"/>
      <point x="212.8" y="48.800000000000004" type="line"/>
      <point x="298.8" y="9.799999999999999" type="line"/>
      <point x="902.6" y="1000.5999999999999" type="line"/>
      <point x="902.6" y="1024.0" type="line"/>
      <point x="210.8" y="1024.0" type="line"/>
      <point x="133.39999999999998" y="1096.0" type="line"/>
      <point x="117.2" y="1096.0" type="line"/>
      <point x="54.4" y="670.2" type="line"/>
      <point x="88.2" y="670.2" type="line"/>
      <point x="224.20000000000002" y="993.4" type="line"/>
      <point x="145.20000000000002" y="956.8" type="line"/>
      <point x="728.6" y="972.0" type="line"/>
      <point x="662.8" y="1011.1999999999999" type="line"/>
      <point x="61.6" y="24.0" type="line"/>
    </contour>
  </outline>
</glyph>
<glyph name="braceleft" format="2">
  <advance width="587.1999999999999"/>
  <unicode hex="007B"/>
  <outline>
    <contour>
      <point x="42.599999999999994" y="603.8" type="line"/>
      <point x="112.4" y="598.6" type="line" smooth="yes"/>
      <point x="216.6" y="589.0"/>
      <point x="247.4" y="540.0"/>
      <point x="247.4" y="460.8" type="curve" smooth="yes"/>
      <point x="247.4" y="307.4"/>
      <point x="169.2" y="174.2"/>
      <point x="169.2" y="52.8" type="curve" smooth="yes"/>
      <point x="169.2" y="-93.39999999999999"/>
      <point x="263.2" y="-218.6"/>
      <point x="455.2" y="-238.0" type="curve" smooth="yes"/>
      <point x="541.0" y="-246.0" type="line"/>
      <point x="547.1999999999999" y="-216.8" type="line"/>
      <point x="488.0" y="-207.8" type="line" smooth="yes"/>
      <point x="375.2" y="-191.6"/>
      <point x="334.0" y="-109.80000000000001"/>
      <point x="334.0" y="2.8000000000000007" type="curve" smooth="yes"/>
      <point x="334.0" y="117.4"/>
      <point x="379.4" y="242.79999999999998"/>
      <point x="379.4" y="390.40000000000003" type="curve" smooth="yes"/>
      <point x="379.4" y="509.4"/>
      <point x="308.59999999999997" y="605.8"/>
      <point x="167.60000000000002" y="628.8000000000001" type="curve"/>
      <point x="167.60000000000002" y="612.0" type="line"/>
      <point x="308.59999999999997" y="634.2"/>
      <point x="379.4" y="731.4"/>
      <point x="379.4" y="850.6" type="curve" smooth="yes"/>
      <point x="379.4" y="998.0"/>
      <point x="334.0" y="1123.4"/>
      <point x="334.0" y="1238.0" type="curve" smooth="yes"/>
      <point x="334.0" y="1349.8000000000002"/>
      <point x="375.2" y="1431.6000000000001"/>
      <point x="488.0" y="1448.6" type="curve" smooth="yes"/>
      <point x="547.1999999999999" y="1457.6" type="line"/>
      <point x="541.0" y="1486.0" type="line"/>
      <point x="455.2" y="1478.0" type="line" smooth="yes"/>
      <point x="263.2" y="1460.1999999999998"/>
      <point x="169.2" y="1333.3999999999999"/>
      <point x="169.2" y="1187.1999999999998" type="curve" smooth="yes"/>
      <point x="169.2" y="1066.6"/>
      <point x="247.4" y="933.6"/>
      <point x="247.4" y="779.2" type="curve" smooth="yes"/>
      <point x="247.4" y="700.0"/>
      <point x="216.6" y="651.8000000000001"/>
      <point x="112.4" y="642.4" type="curve" smooth="yes"/>
      <point x="42.599999999999994" y="637.0" type="line"/>
    </contour>
  </outline>
</glyph>
<glyph name="bar" format="2">
  <advance width="442.0"/>
  <unicode hex="007C"/>
  <outline>
    <contour>
      <point x="183.4" y="-465.0" type="line"/>
      <point x="258.59999999999997" y="-465.0" type="line"/>
      <point x="258.59999999999997" y="1535.0" type="line"/>
      <point x="183.4" y="1535.0" type="line"/>
    </contour>
  </outline>
</glyph>
<glyph name="ordfeminine" format="2">
  <advance width="912.0"/>
  <unicode hex="00AA"/>
  <outline>
    <contour>
      <point x="130.8" y="568.0" type="line"/>
      <point x="791.2" y="568.0" type="line"/>
      <point x="791.2" y="631.0" type="line"/>
      <point x="130.8" y="631.0" type="line"/>
    </contour>
    <contour>
      <point x="531.4000000000001" y="1176.3999999999999" type="curve"/>
      <point x="534.2" y="1211.2" type="line"/>
      <point x="177.4" y="1111.3999999999999"/>
      <point x="133.8" y="1056.8"/>
      <point x="133.8" y="955.6" type="curve" smooth="yes"/>
      <point x="133.8" y="852.4000000000001"/>
      <point x="201.6" y="789.2"/>
      <point x="324.59999999999997" y="789.2" type="curve" smooth="yes"/>
      <point x="424.0" y="789.2"/>
      <point x="495.4692048909818" y="843.2554779439905"/>
      <point x="523.6" y="970.6" type="curve"/>
      <point x="511.2" y="975.6" type="line"/>
      <point x="509.64251680794763" y="831.9650577317674"/>
      <point x="549.2" y="788.0"/>
      <point x="646.1999999999999" y="788.0" type="curve" smooth="yes"/>
      <point x="713.6" y="788.0"/>
      <point x="760.8" y="808.4"/>
      <point x="815.6" y="850.4" type="curve"/>
      <point x="815.6" y="879.0" type="line"/>
      <point x="789.4" y="866.4"/>
      <point x="773.0" y="863.4000000000001"/>
      <point x="750.2" y="863.4000000000001" type="curve" smooth="yes"/>
      <point x="722.4" y="863.4000000000001"/>
      <point x="702.8000000000001" y="877.0"/>
      <point x="702.8000000000001" y="919.2" type="curve" smooth="yes"/>
      <point x="702.8000000000001" y="1250.2" type="line" smooth="yes"/>
      <point x="702.8000000000001" y="1373.8000000000002"/>
      <point x="643.0" y="1452.0"/>
      <point x="462.2" y="1452.0" type="curve" smooth="yes"/>
      <point x="312.6" y="1452.0"/>
      <point x="137.8" y="1365.4"/>
      <point x="137.8" y="1297.0" type="curve" smooth="yes"/>
      <point x="137.8" y="1276.8"/>
      <point x="154.2" y="1261.2"/>
      <point x="195.20000000000002" y="1261.2" type="curve" smooth="yes"/>
      <point x="225.2" y="1261.2"/>
      <point x="252.20000000000002" y="1272.3999999999999"/>
      <point x="265.0" y="1288.6" type="curve" smooth="yes"/>
      <point x="278.8" y="1305.6000000000001"/>
      <point x="286.0" y="1332.0"/>
      <point x="297.0" y="1412.2" type="curve"/>
      <point x="263.2" y="1373.3999999999999" type="line"/>
      <point x="305.20000000000005" y="1386.8"/>
      <point x="344.40000000000003" y="1392.8"/>
      <point x="392.2" y="1392.8" type="curve" smooth="yes"/>
      <point x="475.79999999999995" y="1392.8"/>
      <point x="510.0" y="1344.4"/>
      <point x="510.0" y="1267.6000000000001" type="curve" smooth="yes"/>
      <point x="510.0" y="1000.6" type="line" smooth="yes"/>
      <point x="510.0" y="925.6"/>
      <point x="463.2" y="888.1999999999999"/>
      <point x="406.8" y="888.1999999999999" type="curve" smooth="yes"/>
      <point x="353.0" y="888.1999999999999"/>
      <point x="319.40000000000003" y="924.4725274725275"/>
      <point x="319.40000000000003" y="994.0" type="curve" smooth="yes"/>
      <point x="319.40000000000003" y="1069.013698630137"/>
      <point x="339.54412108451834" y="1113.0540454066943"/>
    </contour>
  </outline>
</glyph>
<glyph name="logicalnot" format="2">
  <advance width="1150.0"/>
  <unicode hex="00AC"/>
  <outline>
    <contour>
      <point x="161.6" y="744.8" type="line"/>
      <point x="161.6" y="671.8" type="line"/>
      <point x="983.6" y="671.8" type="line"/>
      <point x="983.6" y="744.8" type="line"/>
    </contour>
    <contour>
      <point x="983.6" y="704.0" type="line"/>
      <point x="910.6" y="704.0" type="line"/>
      <point x="910.6" y="268.0" type="line"/>
      <point x="983.6" y="268.0" type="line"/>
    </contour>
  </outline>
</glyph>
<glyph name="registered" format="2">
  <advance width="1078.8"/>
  <unicode hex="00AE"/>
  <outline>
    <contour>
      <point x="537.0" y="1452.0" type="curve" smooth="yes"/>
      <point x="287.0" y="1452.0"/>
      <point x="108.0" y="1275.0"/>
      <point x="108.0" y="1026.0" type="curve" smooth="yes"/>
      <point x="108.0" y="778.0"/>
      <point x="287.0" y="598.0"/>
      <point x="537.0" y="598.0" type="curve" smooth="yes"/>
      <point x="789.0" y="598.0"/>
      <point x="971.0" y="778.0"/>
      <point x="971.0" y="1026.0" type="curve" smooth="yes"/>
      <point x="971.0" y="1275.0"/>
      <point x="789.0" y="1452.0"/>
    </contour>
    <contour>
      <point x="537.0" y="1404.1999999999998" type="curve" smooth="yes"/>
      <point x="757.0" y="1404.1999999999998"/>
      <point x="916.2" y="1250.0"/>
      <point x="916.2" y="1026.0" type="curve" smooth="yes"/>
      <point x="916.2" y="804.0"/>
      <point x="757.0" y="646.8"/>
      <point x="537.0" y="646.8" type="curve" smooth="yes"/>
      <point x="319.0" y="646.8"/>
      <point x="162.79999999999998" y="804.0"/>
      <point x="162.79999999999998" y="1026.0" type="curve" smooth="yes"/>
      <point x="162.79999999999998" y="1250.0"/>
      <point x="319.0" y="1404.1999999999998"/>
    </contour>
    <contour>
      <point x="452.8" y="1054.6000000000001" type="line"/>
      <point x="452.8" y="1022.8000000000001" type="line"/>
      <point x="542.1999999999999" y="1022.8000000000001" type="line" smooth="yes"/>
      <point x="577.4" y="1022.8000000000001"/>
      <point x="591.0" y="1012.0"/>
      <point x="602.8" y="975.6" type="curve" smooth="yes"/>
      <point x="625.8" y="896.4" type="line" smooth="yes"/>
      <point x="646.8000000000001" y="821.0"/>
      <point x="663.0" y="809.5999999999999"/>
      <point x="778.8000000000001" y="819.2" type="curve"/>
      <point x="778.8000000000001" y="842.2" type="line"/>
      <point x="751.0" y="842.2"/>
      <point x="739.0" y="847.6"/>
      <point x="727.6" y="885.0" type="curve" smooth="yes"/>
      <point x="702.8000000000001" y="962.0" type="line" smooth="yes"/>
      <point x="687.6" y="1018.6"/>
      <point x="660.6" y="1039.8000000000002"/>
      <point x="598.8" y="1042.2" type="curve"/>
      <point x="598.8" y="1041.2" type="line"/>
      <point x="679.4" y="1044.6"/>
      <point x="722.8" y="1089.2"/>
      <point x="722.8" y="1145.4" type="curve" smooth="yes"/>
      <point x="722.8" y="1202.2"/>
      <point x="685.0" y="1246.0"/>
      <point x="576.0" y="1246.0" type="curve" smooth="yes"/>
      <point x="452.8" y="1246.0" type="line"/>
      <point x="452.8" y="1214.0" type="line"/>
      <point x="527.6" y="1214.0" type="line" smooth="yes"/>
      <point x="597.8" y="1214.0"/>
      <point x="626.0" y="1190.0"/>
      <point x="626.0" y="1138.4" type="curve" smooth="yes"/>
      <point x="626.0" y="1082.6"/>
      <point x="595.4" y="1054.6000000000001"/>
      <point x="541.0" y="1054.6000000000001" type="curve" smooth="yes"/>
    </contour>
    <contour>
      <point x="395.0" y="1215.4" type="line"/>
      <point x="395.0" y="851.8" type="line"/>
      <point x="335.59999999999997" y="836.4" type="line"/>
      <point x="335.59999999999997" y="820.0" type="line"/>
      <point x="553.0" y="820.0" type="line"/>
      <point x="553.0" y="836.4" type="line"/>
      <point x="493.8" y="851.8" type="line"/>
      <point x="493.8" y="1246.0" type="line"/>
      <point x="335.59999999999997" y="1246.0" type="line"/>
      <point x="335.59999999999997" y="1229.6" type="line"/>
    </contour>
  </outline>
</glyph>
<glyph name="degree" format="2">
  <advance width="741.6"/>
  <unicode hex="00B0"/>
  <outline>
    <contour>
      <point x="370.4" y="1445.2" type="curve" smooth="yes"/>
      <point x="197.60000000000002" y="1445.2"/>
      <point x="73.2" y="1323.6000000000001"/>
      <point x="73.2" y="1150.0" type="curve" smooth="yes"/>
      <point x="73.2" y="976.4"/>
      <point x="197.60000000000002" y="854.8"/>
      <point x="370.4" y="854.8" type="curve" smooth="yes"/>
      <point x="544.0" y="854.8"/>
      <point x="668.4" y="976.4"/>
      <point x="668.4" y="1150.0" type="curve" smooth="yes"/>
      <point x="668.4" y="1323.6000000000001"/>
      <point x="544.0" y="1445.2"/>
    </contour>
    <contour>
      <point x="370.4" y="919.4" type="curve" smooth="yes"/>
      <point x="238.79999999999998" y="919.4"/>
      <point x="143.6" y="1011.6"/>
      <point x="143.6" y="1150.0" type="curve" smooth="yes"/>
      <point x="143.6" y="1288.4"/>
      <point x="238.79999999999998" y="1380.6000000000001"/>
      <point x="370.4" y="1380.6000000000001" type="curve" smooth="yes"/>
      <point x="502.79999999999995" y="1380.6000000000001"/>
      <point x="597.1999999999999" y="1288.4"/>
      <point x="597.1999999999999" y="1150.0" type="curve" smooth="yes"/>
      <point x="597.1999999999999" y="1011.6"/>
      <point x="502.79999999999995" y="919.4"/>
    </contour>
  </outline>
</glyph>
<glyph name="uni00B3" format="2">
  <advance width="662.1999999999999"/>
  <unicode hex="00B3"/>
  <outline>
    <contour>
      <point x="221.8" y="646.8" type="curve" smooth="yes"/>
      <point x="449.2" y="646.8"/>
      <point x="605.0" y="760.4000000000001"/>
      <point x="605.0" y="922.8" type="curve" smooth="yes"/>
      <point x="605.0" y="1042.4"/>
      <point x="522.0" y="1123.1999999999998"/>
      <point x="351.20000000000005" y="1105.0" type="curve"/>
      <point x="349.4" y="1096.2" type="line"/>
      <point x="485.2" y="1131.8"/>
      <point x="540.4000000000001" y="1203.3999999999999"/>
      <point x="540.4000000000001" y="1282.8000000000002" type="curve" smooth="yes"/>
      <point x="540.4000000000001" y="1374.8"/>
      <point x="481.40000000000003" y="1445.1999999999998"/>
      <point x="346.59999999999997" y="1445.1999999999998" type="curve" smooth="yes"/>
      <point x="194.2" y="1445.1999999999998"/>
      <point x="103.19999999999999" y="1357.4"/>
      <point x="66.0" y="1217.2" type="curve"/>
      <point x="99.2" y="1206.6" type="line"/>
      <point x="125.80000000000001" y="1288.2"/>
      <point x="181.4" y="1331.8"/>
      <point x="267.2" y="1331.8" type="curve" smooth="yes"/>
      <point x="337.79999999999995" y="1331.8"/>
      <point x="378.2" y="1293.6"/>
      <point x="378.2" y="1229.0" type="curve" smooth="yes"/>
      <point x="378.2" y="1160.6"/>
      <point x="329.59999999999997" y="1107.0"/>
      <point x="190.8" y="1061.6" type="curve"/>
      <point x="200.6" y="1022.6" type="line"/>
      <point x="234.6" y="1031.6000000000001" type="line" smooth="yes"/>
      <point x="370.79999999999995" y="1066.2"/>
      <point x="421.0" y="1011.6"/>
      <point x="421.0" y="898.8000000000001" type="curve" smooth="yes"/>
      <point x="421.0" y="765.1999999999999"/>
      <point x="358.8" y="692.2"/>
      <point x="268.4" y="692.2" type="curve" smooth="yes"/>
      <point x="192.0" y="692.2"/>
      <point x="127.79999999999998" y="802.5999999999999"/>
      <point x="105.4" y="802.5999999999999" type="curve" smooth="yes"/>
      <point x="71.39999999999999" y="802.5999999999999"/>
      <point x="45.6" y="774.0"/>
      <point x="45.6" y="739.0" type="curve" smooth="yes"/>
      <point x="45.6" y="690.6"/>
      <point x="85.0" y="646.8"/>
    </contour>
  </outline>
</glyph>
<glyph name="paragraph" format="2">
  <advance width="1208.0"/>
  <unicode hex="00B6"/>
  <outline>
    <contour>
      <point x="705.0" y="1430.0" type="line"/>
      <point x="461.8" y="1430.0" type="line" smooth="yes"/>
      <point x="168.39999999999998" y="1430.0"/>
      <point x="54.6" y="1265.8"/>
      <point x="54.6" y="1069.3999999999999" type="curve" smooth="yes"/>
      <point x="54.6" y="868.4"/>
      <point x="171.20000000000002" y="716.6"/>
      <point x="461.0" y="716.6" type="curve" smooth="yes"/>
      <point x="705.0" y="716.6" type="line"/>
    </contour>
    <contour>
      <point x="722.6" y="-218.0" type="line"/>
      <point x="722.6" y="1367.8" type="line"/>
      <point x="905.2" y="1367.8" type="line"/>
      <point x="905.2" y="1430.0" type="line"/>
      <point x="652.6" y="1430.0" type="line"/>
      <point x="652.6" y="-218.0" type="line"/>
    </contour>
    <contour>
      <point x="955.2" y="-218.0" type="line"/>
      <point x="955.2" y="1369.6" type="line"/>
      <point x="1140.8" y="1405.2" type="line"/>
      <point x="1140.8" y="1430.0" type="line"/>
      <point x="885.2" y="1430.0" type="line"/>
      <point x="885.2" y="-218.0" type="line"/>
    </contour>
  </outline>
</glyph>
<glyph name="ordmasculine" format="2">
  <advance width="947.4"/>
  <unicode hex="00BA"/>
  <outline>
    <contour>
      <point x="143.4" y="568.0" type="line"/>
      <point x="803.8000000000001" y="568.0" type="line"/>
      <point x="803.8000000000001" y="631.0" type="line"/>
      <point x="143.4" y="631.0" type="line"/>
    </contour>
    <contour>
      <point x="474.8" y="831.0" type="curve" smooth="yes"/>
      <point x="366.2" y="831.0"/>
      <point x="315.79999999999995" y="941.527269887872"/>
      <point x="315.79999999999995" y="1131.6" type="curve" smooth="yes"/>
      <point x="315.79999999999995" y="1313.8863108436278"/>
      <point x="367.8" y="1408.8"/>
      <point x="472.40000000000003" y="1408.8" type="curve" smooth="yes"/>
      <point x="580.0" y="1408.8"/>
      <point x="631.4" y="1298.4685173580651"/>
      <point x="631.4" y="1108.4" type="curve" smooth="yes"/>
      <point x="631.4" y="925.1268687134311"/>
      <point x="578.4" y="831.0"/>
    </contour>
    <contour>
      <point x="466.59999999999997" y="788.0" type="curve" smooth="yes"/>
      <point x="674.1999999999999" y="788.0"/>
      <point x="830.6" y="920.153982300885"/>
      <point x="830.6" y="1124.8000000000002" type="curve" smooth="yes"/>
      <point x="830.6" y="1322.6547112462003"/>
      <point x="685.0" y="1452.0"/>
      <point x="479.6" y="1452.0" type="curve" smooth="yes"/>
      <point x="271.59999999999997" y="1452.0"/>
      <point x="116.6" y="1318.8554572271387"/>
      <point x="116.6" y="1115.2" type="curve" smooth="yes"/>
      <point x="116.6" y="917.3452887537993"/>
      <point x="264.6" y="788.0"/>
    </contour>
  </outline>
</glyph>
<glyph name="guillemotright" format="2">
  <advance width="972.4"/>
  <unicode hex="00BB"/>
  <outline>
    <contour>
      <point x="354.2" y="441.0" type="line"/>
      <point x="354.2" y="604.2" type="line"/>
      <point x="93.4" y="101.8" type="line"/>
      <point x="111.4" y="87.4" type="line"/>
      <point x="523.2" y="514.6" type="line"/>
      <point x="523.2" y="530.6" type="line"/>
      <point x="111.4" y="957.8" type="line"/>
      <point x="93.4" y="943.4" type="line"/>
    </contour>
    <contour>
      <point x="722.1999999999999" y="441.0" type="line"/>
      <point x="722.1999999999999" y="604.2" type="line"/>
      <point x="461.4" y="101.8" type="line"/>
      <point x="479.4" y="87.4" type="line"/>
      <point x="891.2" y="514.6" type="line"/>
      <point x="891.2" y="530.6" type="line"/>
      <point x="479.4" y="957.8" type="line"/>
      <point x="461.4" y="943.4" type="line"/>
    </contour>
  </outline>
</glyph>
<glyph name="AE" format="2">
  <advance width="2132.6"/>
  <unicode hex="00C6"/>
  <anchor x="1122.4" y="1430.0" name="UCtop"/>
  <anchor x="1122.4" y="0.0" name="bottom"/>
  <outline>
    <contour>
      <point x="476.2" y="542.0" type="line"/>
      <point x="1060.4" y="542.0" type="line"/>
      <point x="1060.4" y="608.0" type="line"/>
      <point x="476.2" y="608.0" type="line"/>
    </contour>
    <contour>
      <point x="960.8000000000001" y="1430.0" type="line"/>
      <point x="126.4" y="61.2" type="line"/>
      <point x="-43.2" y="23.2" type="line"/>
      <point x="-43.2" y="0.0" type="line"/>
      <point x="378.8" y="0.0" type="line"/>
      <point x="378.8" y="23.2" type="line"/>
      <point x="200.0" y="59.800000000000004" type="line"/>
      <point x="1007.4000000000001" y="1387.4" type="line"/>
      <point x="1007.4000000000001" y="1430.0" type="line"/>
    </contour>
    <contour>
      <point x="758.8" y="1405.3999999999999" type="line"/>
      <point x="939.4000000000001" y="1369.0" type="line"/>
      <point x="969.6" y="1430.0" type="line"/>
      <point x="758.8" y="1430.0" type="line"/>
    </contour>
    <contour>
      <point x="1713.8" y="1047.0" type="line"/>
      <point x="1689.8000000000002" y="1047.0" type="line"/>
      <point x="1573.2" y="790.8" type="line"/>
      <point x="1126.0" y="763.4" type="line"/>
      <point x="1126.0" y="729.8000000000001" type="line"/>
      <point x="1573.2" y="706.0" type="line"/>
      <point x="1689.8000000000002" y="447.0" type="line"/>
      <point x="1713.8" y="447.0" type="line"/>
      <point x="1675.8" y="746.0" type="line"/>
    </contour>
    <contour>
      <point x="2029.6" y="1022.9999999999999" type="line"/>
      <point x="1955.2" y="1491.0" type="line"/>
      <point x="1944.6000000000001" y="1491.0" type="line"/>
      <point x="1808.0" y="1430.0" type="line"/>
      <point x="1086.3999999999999" y="1430.0" type="line"/>
      <point x="1086.3999999999999" y="1362.0" type="line"/>
      <point x="1941.0" y="1362.0" type="line"/>
      <point x="1784.6000000000001" y="1392.6" type="line"/>
      <point x="2001.8000000000002" y="1014.2" type="line"/>
    </contour>
    <contour>
      <point x="1810.4" y="38.8" type="line"/>
      <point x="1962.6" y="68.0" type="line"/>
      <point x="1086.3999999999999" y="68.0" type="line"/>
      <point x="1086.3999999999999" y="0.0" type="line"/>
      <point x="1836.8" y="0.0" type="line"/>
      <point x="1967.0" y="-59.8" type="line"/>
      <point x="1979.4" y="-59.8" type="line"/>
      <point x="2090.2" y="414.40000000000003" type="line"/>
      <point x="2061.2" y="422.2" type="line"/>
    </contour>
    <contour>
      <point x="817.4000000000001" y="0.0" type="line"/>
      <point x="1255.6000000000001" y="0.0" type="line"/>
      <point x="1255.6000000000001" y="1430.0" type="line"/>
      <point x="989.2" y="1430.0" type="line"/>
      <point x="989.2" y="74.0" type="line"/>
      <point x="817.4000000000001" y="30.799999999999997" type="line"/>
    </contour>
  </outline>
</glyph>
<glyph name="multiply" format="2">
  <advance width="1150.0"/>
  <unicode hex="00D7"/>
  <outline>
    <contour>
      <point x="224.0" y="212.2" type="line"/>
      <point x="275.2" y="161.0" type="line"/>
      <point x="926.0" y="811.8" type="line"/>
      <point x="874.8" y="863.0" type="line"/>
    </contour>
    <contour>
      <point x="224.0" y="811.8" type="line"/>
      <point x="874.8" y="161.0" type="line"/>
      <point x="926.0" y="212.2" type="line"/>
      <point x="275.2" y="863.0" type="line"/>
    </contour>
  </outline>
</glyph>
<glyph name="eth" format="2">
  <advance width="1184.0"/>
  <unicode hex="00F0"/>
  <outline>
    <contour>
      <point x="576.8" y="-22.0" type="curve" smooth="yes"/>
      <point x="875.0" y="-22.0"/>
      <point x="1101.0" y="187.20000000000002"/>
      <point x="1101.0" y="590.2" type="curve" smooth="yes"/>
      <point x="1101.0" y="980.0"/>
      <point x="937.0" y="1377.8"/>
      <point x="238.0" y="1485.4" type="curve"/>
      <point x="222.4" y="1450.6" type="line"/>
      <point x="737.4" y="1313.0"/>
      <point x="843.8" y="1096.0"/>
      <point x="864.4" y="712.1999999999999" type="curve"/>
      <point x="926.6" y="699.0" type="line"/>
      <point x="888.4000000000001" y="927.0"/>
      <point x="729.2" y="1012.0"/>
      <point x="575.1999999999999" y="1012.0" type="curve" smooth="yes"/>
      <point x="292.59999999999997" y="1012.0"/>
      <point x="68.39999999999999" y="805.1999999999999"/>
      <point x="68.39999999999999" y="485.8" type="curve" smooth="yes"/>
      <point x="68.39999999999999" y="177.6"/>
      <point x="286.4" y="-22.0"/>
    </contour>
    <contour>
      <point x="586.0" y="29.0" type="curve" smooth="yes"/>
      <point x="413.6" y="29.0"/>
      <point x="320.8" y="206.4"/>
      <point x="320.8" y="507.0" type="curve" smooth="yes"/>
      <point x="320.8" y="802.2"/>
      <point x="415.59999999999997" y="962.2"/>
      <point x="583.2" y="962.2" type="curve" smooth="yes"/>
      <point x="756.4" y="962.2"/>
      <point x="849.1999999999999" y="783.0"/>
      <point x="849.1999999999999" y="480.8" type="curve" smooth="yes"/>
      <point x="849.1999999999999" y="187.0"/>
      <point x="754.4" y="29.0"/>
    </contour>
    <contour>
      <point x="428.0" y="1098.3999999999999" type="line"/>
      <point x="876.0" y="1458.8" type="line"/>
      <point x="842.2" y="1499.8" type="line"/>
      <point x="393.4" y="1140.2" type="line"/>
    </contour>
  </outline>
</glyph>
<glyph name="oslash" format="2">
  <advance width="1182.2"/>
  <unicode hex="00F8"/>
  <anchor x="591.1999999999999" y="1024.0" name="top"/>
  <anchor x="591.1999999999999" y="0.0" name="bottom"/>
  <outline>
    <contour>
      <point x="76.0" y="0.0" type="line"/>
      <point x="169.6" y="0.0" type="line"/>
      <point x="282.40000000000003" y="122.80000000000001" type="line"/>
      <point x="322.8" y="149.60000000000002" type="line"/>
      <point x="896.1999999999999" y="810.1999999999999" type="line"/>
      <point x="941.0" y="842.8" type="line"/>
      <point x="1106.2" y="1024.0" type="line"/>
      <point x="1013.4" y="1024.0" type="line"/>
      <point x="901.4" y="901.2" type="line"/>
      <point x="853.0" y="864.0" type="line"/>
      <point x="278.8" y="204.20000000000002" type="line"/>
      <point x="242.79999999999998" y="182.8" type="line"/>
    </contour>
    <contour>
      <point x="589.1999999999999" y="29.0" type="curve" smooth="yes"/>
      <point x="416.8" y="29.0"/>
      <point x="334.4" y="197.0"/>
      <point x="334.4" y="521.0" type="curve" smooth="yes"/>
      <point x="334.4" y="838.6"/>
      <point x="419.59999999999997" y="994.8000000000001"/>
      <point x="592.8" y="994.8000000000001" type="curve" smooth="yes"/>
      <point x="765.2" y="994.8000000000001"/>
      <point x="847.5999999999999" y="827.0"/>
      <point x="847.5999999999999" y="503.0" type="curve" smooth="yes"/>
      <point x="847.5999999999999" y="185.20000000000002"/>
      <point x="762.4" y="29.0"/>
    </contour>
    <contour>
      <point x="584.0" y="-22.0" type="curve" smooth="yes"/>
      <point x="867.8" y="-22.0"/>
      <point x="1100.2" y="196.79999999999998"/>
      <point x="1100.2" y="512.4" type="curve" smooth="yes"/>
      <point x="1100.2" y="826.4"/>
      <point x="888.0" y="1046.0"/>
      <point x="598.0" y="1046.0" type="curve" smooth="yes"/>
      <point x="308.59999999999997" y="1046.0"/>
      <point x="82.0" y="826.1999999999999"/>
      <point x="82.0" y="511.6" type="curve" smooth="yes"/>
      <point x="82.0" y="198.4"/>
      <point x="300.0" y="-22.0"/>
    </contour>
  </outline>
</glyph>
<glyph name="thorn" format="2">
  <advance width="1184.0"/>
  <unicode hex="00FE"/>
  <outline>
    <contour>
      <point x="136.4" y="1285.8" type="curve"/>
      <point x="136.4" y="-383.8" type="line"/>
      <point x="4.800000000000001" y="-414.8" type="line"/>
      <point x="4.800000000000001" y="-443.0" type="line"/>
      <point x="522.8" y="-443.0" type="line"/>
      <point x="522.8" y="-414.8" type="line"/>
      <point x="371.2" y="-383.8" type="line"/>
      <point x="371.2" y="58.2" type="line"/>
      <point x="216.79999999999998" y="58.2" type="line"/>
      <point x="316.59999999999997" y="2.4"/>
      <point x="442.4" y="-22.0"/>
      <point x="560.6" y="-22.0" type="curve" smooth="yes"/>
      <point x="883.1999999999999" y="-22.0"/>
      <point x="1113.0" y="192.6"/>
      <point x="1113.0" y="567.0" type="curve" smooth="yes"/>
      <point x="1113.0" y="859.6"/>
      <point x="963.6" y="1046.0"/>
      <point x="706.0" y="1046.0" type="curve" smooth="yes"/>
      <point x="592.4" y="1046.0"/>
      <point x="483.6" y="995.6"/>
      <point x="304.6" y="805.6" type="curve"/>
      <point x="316.6" y="782.2" type="line"/>
      <point x="394.2" y="862.6"/>
      <point x="478.8" y="894.2"/>
      <point x="580.6" y="894.2" type="curve" smooth="yes"/>
      <point x="774.4" y="894.2"/>
      <point x="866.2" y="765.8000000000001"/>
      <point x="866.2" y="483.8" type="curve" smooth="yes"/>
      <point x="866.2" y="179.2"/>
      <point x="765.8000000000001" y="31.0"/>
      <point x="591.0" y="31.0" type="curve" smooth="yes"/>
      <point x="464.4" y="31.0"/>
      <point x="371.2" y="116.2"/>
      <point x="371.2" y="239.6" type="curve" smooth="yes"/>
      <point x="371.2" y="1303.2" type="line"/>
      <point x="371.2" y="1486.0" type="line"/>
      <point x="362.6" y="1486.0" type="line"/>
      <point x="-26.400000000000002" y="1399.0" type="line"/>
      <point x="-26.400000000000002" y="1378.0" type="line"/>
      <point x="51.6" y="1333.7822767552827"/>
      <point x="110.39999999999999" y="1300.5392410815723"/>
    </contour>
  </outline>
</glyph>
<glyph name="aogonek" format="2">
  <advance width="1052.8"/>
  <unicode hex="0105"/>
  <outline>
    <contour>
      <point x="1072.0" y="110.2" type="line"/>
      <point x="1072.0" y="144.2" type="line"/>
      <point x="1028.2" y="115.8"/>
      <point x="987.8" y="103.6"/>
      <point x="946.6" y="103.6" type="curve" smooth="yes"/>
      <point x="899.5999999999999" y="103.6"/>
      <point x="868.4" y="127.39999999999999"/>
      <point x="868.4" y="188.8" type="curve" smooth="yes"/>
      <point x="868.4" y="764.8000000000001" type="line" smooth="yes"/>
      <point x="868.4" y="934.8000000000001"/>
      <point x="778.0" y="1046.0"/>
      <point x="539.2" y="1046.0" type="curve" smooth="yes"/>
      <point x="334.4" y="1046.0"/>
      <point x="83.60000000000001" y="914.8000000000001"/>
      <point x="83.60000000000001" y="800.4000000000001" type="curve" smooth="yes"/>
      <point x="83.60000000000001" y="758.8"/>
      <point x="115.0" y="738.8000000000001"/>
      <point x="169.60000000000002" y="738.8000000000001" type="curve" smooth="yes"/>
      <point x="211.39999999999998" y="738.8000000000001"/>
      <point x="253.4" y="754.1999999999999"/>
      <point x="271.79999999999995" y="777.8000000000001" type="curve" smooth="yes"/>
      <point x="297.0" y="809.6"/>
      <point x="311.4" y="889.4"/>
      <point x="320.59999999999997" y="976.0" type="curve"/>
      <point x="272.0" y="938.8" type="line"/>
      <point x="308.0" y="955.0"/>
      <point x="374.40000000000003" y="963.6"/>
      <point x="438.6" y="963.6" type="curve" smooth="yes"/>
      <point x="569.8" y="963.6"/>
      <point x="633.6" y="894.0"/>
      <point x="633.6" y="766.4000000000001" type="curve" smooth="yes"/>
      <point x="633.6" y="302.6" type="line" smooth="yes"/>
      <point x="633.6" y="185.8"/>
      <point x="566.0" y="125.8"/>
      <point x="465.8" y="125.8" type="curve" smooth="yes"/>
      <point x="377.8" y="125.8"/>
      <point x="310.8" y="179.79999999999998"/>
      <point x="310.8" y="293.0" type="curve" smooth="yes"/>
      <point x="310.8" y="428.8"/>
      <point x="369.0" y="508.6"/>
      <point x="700.5999999999999" y="615.8000000000001" type="curve"/>
      <point x="693.6" y="660.5999999999999" type="line"/>
      <point x="157.79999999999998" y="487.8"/>
      <point x="75.0" y="411.0"/>
      <point x="75.0" y="238.8" type="curve" smooth="yes"/>
      <point x="75.0" y="72.4"/>
      <point x="193.6" y="-21.4"/>
      <point x="368.20000000000005" y="-21.4" type="curve" smooth="yes"/>
      <point x="500.6" y="-21.4"/>
      <point x="602.0" y="69.8"/>
      <point x="638.0" y="213.4" type="curve"/>
      <point x="631.8" y="216.4" type="line"/>
      <point x="636.8" y="60.400000000000006"/>
      <point x="678.2" y="-22.0"/>
      <point x="808.1999999999999" y="-22.0" type="curve" smooth="yes"/>
      <point x="875.6" y="-22.0"/>
      <point x="932.6" y="-10.4"/>
      <point x="998.0" y="39.8" type="curve"/>
      <point x="991.0" y="48.0" type="line"/>
      <point x="889.0" y="-65.4" type="line" smooth="yes"/>
      <point x="760.6" y="-201.79999999999998"/>
      <point x="736.2" y="-262.40000000000003"/>
      <point x="736.2" y="-325.0" type="curve" smooth="yes"/>
      <point x="736.2" y="-401.79999999999995"/>
      <point x="780.8000000000001" y="-465.0"/>
      <point x="884.4" y="-465.0" type="curve" smooth="yes"/>
      <point x="953.8" y="-465.0"/>
      <point x="1002.5999999999999" y="-438.2"/>
      <point x="1096.2" y="-331.0" type="curve"/>
      <point x="1084.3999999999999" y="-313.2" type="line"/>
      <point x="1030.2" y="-356.2"/>
      <point x="995.0" y="-362.40000000000003"/>
      <point x="962.8" y="-362.40000000000003" type="curve" smooth="yes"/>
      <point x="900.5999999999999" y="-362.40000000000003"/>
      <point x="865.0" y="-320.8"/>
      <point x="865.0" y="-264.0" type="curve" smooth="yes"/>
      <point x="865.0" y="-212.6"/>
      <point x="879.6" y="-154.6"/>
      <point x="971.6" y="-28.2" type="curve" smooth="yes"/>
    </contour>
  </outline>
</glyph>
<glyph name="Eogonek" format="2">
  <advance width="1379.0"/>
  <unicode hex="0118"/>
  <outline>
    <contour>
      <point x="960.1999999999999" y="1047.0" type="line"/>
      <point x="936.2" y="1047.0" type="line"/>
      <point x="819.6" y="790.8" type="line"/>
      <point x="372.4" y="763.4" type="line"/>
      <point x="372.4" y="729.8000000000001" type="line"/>
      <point x="819.6" y="706.0" type="line"/>
      <point x="936.2" y="447.0" type="line"/>
      <point x="960.1999999999999" y="447.0" type="line"/>
      <point x="922.1999999999999" y="746.0" type="line"/>
    </contour>
    <contour>
      <point x="1276.0" y="1022.9999999999999" type="line"/>
      <point x="1201.6000000000001" y="1491.0" type="line"/>
      <point x="1191.0" y="1491.0" type="line"/>
      <point x="1054.3999999999999" y="1430.0" type="line"/>
      <point x="332.79999999999995" y="1430.0" type="line"/>
      <point x="332.79999999999995" y="1362.0" type="line"/>
      <point x="1187.4" y="1362.0" type="line"/>
      <point x="1031.0" y="1392.6" type="line"/>
      <point x="1248.2" y="1014.2" type="line"/>
    </contour>
    <contour>
      <point x="1056.8" y="38.8" type="line"/>
      <point x="1209.0" y="68.0" type="line"/>
      <point x="332.79999999999995" y="68.0" type="line"/>
      <point x="332.79999999999995" y="0.0" type="line"/>
      <point x="1083.2" y="0.0" type="line"/>
      <point x="1213.4" y="-59.8" type="line"/>
      <point x="1225.8" y="-59.8" type="line"/>
      <point x="1336.6" y="414.40000000000003" type="line"/>
      <point x="1307.6" y="422.2" type="line"/>
    </contour>
    <contour>
      <point x="63.8" y="0.0" type="line"/>
      <point x="502.0" y="0.0" type="line"/>
      <point x="502.0" y="1430.0" type="line"/>
      <point x="63.8" y="1430.0" type="line"/>
      <point x="63.8" y="1399.0" type="line"/>
      <point x="235.60000000000002" y="1357.0" type="line"/>
      <point x="235.60000000000002" y="74.0" type="line"/>
      <point x="63.8" y="30.799999999999997" type="line"/>
    </contour>
    <contour>
      <point x="1067.4" y="-53.6" type="curve" smooth="yes"/>
      <point x="1159.4" y="80.2" type="line"/>
      <point x="1133.6" y="80.2" type="line"/>
      <point x="984.2" y="-88.2" type="line" smooth="yes"/>
      <point x="867.0" y="-216.0"/>
      <point x="845.0" y="-274.79999999999995"/>
      <point x="845.0" y="-331.4" type="curve" smooth="yes"/>
      <point x="845.0" y="-408.0"/>
      <point x="897.0" y="-465.0"/>
      <point x="995.8000000000001" y="-465.0" type="curve" smooth="yes"/>
      <point x="1065.2" y="-465.0"/>
      <point x="1112.0" y="-438.2"/>
      <point x="1205.6000000000001" y="-331.0" type="curve"/>
      <point x="1193.8" y="-313.2" type="line"/>
      <point x="1139.6" y="-356.2"/>
      <point x="1104.4" y="-362.40000000000003"/>
      <point x="1072.2" y="-362.40000000000003" type="curve" smooth="yes"/>
      <point x="1009.6" y="-362.40000000000003"/>
      <point x="971.6" y="-327.59999999999997"/>
      <point x="971.8000000000001" y="-270.79999999999995" type="curve" smooth="yes"/>
      <point x="972.0" y="-220.6"/>
      <point x="987.6" y="-167.4"/>
    </contour>
  </outline>
</glyph>
<glyph name="Hbar" format="2">
  <advance width="1693.6000000000001"/>
  <unicode hex="0126"/>
  <outline>
    <contour>
      <point x="504.0" y="74.0" type="line"/>
      <point x="504.0" y="1357.0" type="line"/>
      <point x="675.8" y="1399.0" type="line"/>
      <point x="675.8" y="1430.0" type="line"/>
      <point x="65.8" y="1430.0" type="line"/>
      <point x="65.8" y="1399.0" type="line"/>
      <point x="237.6" y="1357.0" type="line"/>
      <point x="237.6" y="74.0" type="line"/>
      <point x="65.8" y="30.799999999999997" type="line"/>
      <point x="65.8" y="0.0" type="line"/>
      <point x="675.8" y="0.0" type="line"/>
      <point x="675.8" y="30.799999999999997" type="line"/>
    </contour>
    <contour>
      <point x="1456.0" y="74.0" type="line"/>
      <point x="1456.0" y="1357.0" type="line"/>
      <point x="1627.8" y="1399.0" type="line"/>
      <point x="1627.8" y="1430.0" type="line"/>
      <point x="1017.8000000000001" y="1430.0" type="line"/>
      <point x="1017.8000000000001" y="1399.0" type="line"/>
      <point x="1189.6000000000001" y="1357.0" type="line"/>
      <point x="1189.6000000000001" y="74.0" type="line"/>
      <point x="1017.8000000000001" y="30.799999999999997" type="line"/>
      <point x="1017.8000000000001" y="0.0" type="line"/>
      <point x="1627.8" y="0.0" type="line"/>
      <point x="1627.8" y="30.799999999999997" type="line"/>
    </contour>
    <contour>
      <point x="65.8" y="1053.2" type="line"/>
      <point x="1627.8" y="1053.2" type="line"/>
      <point x="1627.8" y="1123.2" type="line"/>
      <point x="65.8" y="1123.2" type="line"/>
    </contour>
    <contour>
      <point x="353.2" y="706.4" type="line"/>
      <point x="1337.4" y="706.4" type="line"/>
      <point x="1337.4" y="774.4" type="line"/>
      <point x="353.2" y="774.4" type="line"/>
    </contour>
  </outline>
</glyph>
<glyph name="iogonek" format="2">
  <advance width="581.4"/>
  <unicode hex="012F"/>
  <outline>
    <contour>
      <point x="284.79999999999995" y="1186.0" type="curve" smooth="yes"/>
      <point x="376.40000000000003" y="1186.0"/>
      <point x="429.40000000000003" y="1257.8"/>
      <point x="429.40000000000003" y="1335.1999999999998" type="curve" smooth="yes"/>
      <point x="429.40000000000003" y="1411.0"/>
      <point x="376.40000000000003" y="1474.8"/>
      <point x="284.79999999999995" y="1474.8" type="curve" smooth="yes"/>
      <point x="193.4" y="1474.8"/>
      <point x="136.6" y="1411.0"/>
      <point x="136.6" y="1335.1999999999998" type="curve" smooth="yes"/>
      <point x="136.6" y="1257.8"/>
      <point x="193.4" y="1186.0"/>
    </contour>
    <contour>
      <point x="416.79999999999995" y="1054.8" type="line"/>
      <point x="408.2" y="1054.8" type="line"/>
      <point x="45.2" y="954.4" type="line"/>
      <point x="45.2" y="933.4000000000001" type="line"/>
      <point x="106.2" y="886.8920704295704"/>
      <point x="160.0" y="849.1733516483516"/>
      <point x="182.0" y="832.4" type="curve"/>
      <point x="182.0" y="59.199999999999996" type="line"/>
      <point x="50.4" y="28.2" type="line"/>
      <point x="50.4" y="0.0" type="line"/>
      <point x="546.1999999999999" y="0.0" type="line"/>
      <point x="546.1999999999999" y="28.2" type="line"/>
      <point x="416.8" y="58.6" type="line"/>
      <point x="416.8" y="855.1999999999999" type="line"/>
    </contour>
    <contour>
      <point x="298.2" y="-51.2" type="curve" smooth="yes"/>
      <point x="358.59999999999997" y="80.2" type="line"/>
      <point x="332.8" y="80.2" type="line"/>
      <point x="223.6" y="-84.60000000000001" type="line" smooth="yes"/>
      <point x="132.6" y="-219.4"/>
      <point x="105.8" y="-274.0"/>
      <point x="105.8" y="-332.2" type="curve" smooth="yes"/>
      <point x="105.8" y="-405.0"/>
      <point x="150.4" y="-465.0"/>
      <point x="254.0" y="-465.0" type="curve" smooth="yes"/>
      <point x="323.4" y="-465.0"/>
      <point x="372.2" y="-438.2"/>
      <point x="465.79999999999995" y="-331.0" type="curve"/>
      <point x="454.0" y="-313.2" type="line"/>
      <point x="399.8" y="-356.2"/>
      <point x="364.6" y="-362.40000000000003"/>
      <point x="332.4" y="-362.40000000000003" type="curve" smooth="yes"/>
      <point x="270.2" y="-362.40000000000003"/>
      <point x="234.6" y="-328.0"/>
      <point x="234.6" y="-274.4" type="curve" smooth="yes"/>
      <point x="234.6" y="-226.2"/>
      <point x="240.8" y="-175.0"/>
    </contour>
  </outline>
</glyph>
<glyph name="Lslash" format="2">
  <advance width="1298.0"/>
  <unicode hex="0141"/>
  <outline>
    <contour>
      <point x="325.2" y="633.5999999999999" type="line"/>
      <point x="447.0" y="664.0" type="line"/>
      <point x="845.2" y="881.8000000000001" type="line"/>
      <point x="845.2" y="960.4000000000001" type="line"/>
      <point x="447.0" y="742.6" type="line"/>
      <point x="325.2" y="713.0" type="line"/>
      <point x="87.8" y="583.0" type="line"/>
      <point x="87.8" y="503.6" type="line"/>
    </contour>
    <contour>
      <point x="1167.8" y="-59.800000000000004" type="line"/>
      <point x="1278.6" y="414.40000000000003" type="line"/>
      <point x="1249.6000000000001" y="422.2" type="line"/>
      <point x="994.8" y="38.800000000000004" type="line"/>
      <point x="1151.0" y="68.0" type="line"/>
      <point x="356.79999999999995" y="68.0" type="line"/>
      <point x="356.79999999999995" y="0.0" type="line"/>
      <point x="1021.1999999999999" y="0.0" type="line"/>
      <point x="1155.4" y="-59.800000000000004" type="line"/>
    </contour>
    <contour>
      <point x="526.0" y="1357.0" type="line"/>
      <point x="697.8" y="1399.0" type="line"/>
      <point x="697.8" y="1430.0" type="line"/>
      <point x="87.8" y="1430.0" type="line"/>
      <point x="87.8" y="1399.0" type="line"/>
      <point x="259.6" y="1357.0" type="line"/>
      <point x="259.6" y="74.0" type="line"/>
      <point x="87.8" y="30.799999999999997" type="line"/>
      <point x="87.8" y="0.0" type="line"/>
      <point x="526.0" y="0.0" type="line"/>
    </contour>
  </outline>
</glyph>
<glyph name="Eng" format="2">
  <advance width="1550.6000000000001"/>
  <unicode hex="014A"/>
  <outline>
    <contour>
      <point x="1304.0" y="360.8" type="line"/>
      <point x="512.8" y="1430.0" type="line"/>
      <point x="44.2" y="1430.0" type="line"/>
      <point x="44.2" y="1400.8" type="line"/>
      <point x="243.0" y="1338.0" type="line"/>
      <point x="243.0" y="73.60000000000001" type="line"/>
      <point x="69.2" y="30.799999999999997" type="line"/>
      <point x="69.2" y="0.0" type="line"/>
      <point x="500.99999999999994" y="0.0" type="line"/>
      <point x="500.99999999999994" y="30.799999999999997" type="line"/>
      <point x="310.4" y="73.60000000000001" type="line"/>
      <point x="310.4" y="1349.8" type="line"/>
      <point x="281.2" y="1321.8" type="line"/>
      <point x="1284.0" y="-25.200000000000003" type="line"/>
    </contour>
    <contour>
      <point x="1325.6" y="27.8" type="curve" smooth="yes"/>
      <point x="1325.6" y="1356.1999999999998" type="line"/>
      <point x="1499.3999999999999" y="1399.0" type="line"/>
      <point x="1499.3999999999999" y="1430.0" type="line"/>
      <point x="1067.6" y="1430.0" type="line"/>
      <point x="1067.6" y="1399.0" type="line"/>
      <point x="1258.2" y="1356.1999999999998" type="line"/>
      <point x="1258.2" y="19.0" type="line" smooth="yes"/>
      <point x="1258.2" y="-232.0"/>
      <point x="1162.2" y="-307.6"/>
      <point x="1056.6" y="-307.6" type="curve" smooth="yes"/>
      <point x="970.8" y="-307.6"/>
      <point x="901.0" y="-244.4"/>
      <point x="882.6" y="-244.4" type="curve" smooth="yes"/>
      <point x="844.8" y="-244.4"/>
      <point x="803.0" y="-278.2"/>
      <point x="803.0" y="-338.0" type="curve" smooth="yes"/>
      <point x="803.0" y="-404.6"/>
      <point x="849.8" y="-465.0"/>
      <point x="964.6" y="-465.0" type="curve" smooth="yes"/>
      <point x="1163.0" y="-465.0"/>
      <point x="1325.6" y="-320.6"/>
    </contour>
  </outline>
</glyph>
<glyph name="eng" format="2">
  <advance width="1188.0"/>
  <unicode hex="014B"/>
  <outline>
    <contour>
      <point x="414.2" y="845.4" type="line"/>
      <point x="414.2" y="1054.8" type="line"/>
      <point x="405.6" y="1054.8" type="line"/>
      <point x="42.6" y="954.4" type="line"/>
      <point x="42.6" y="933.4" type="line"/>
      <point x="123.80000000000001" y="876.9818181818182"/>
      <point x="157.2" y="849.676923076923"/>
      <point x="179.4" y="832.4" type="curve"/>
      <point x="179.4" y="59.199999999999996" type="line"/>
      <point x="47.8" y="28.2" type="line"/>
      <point x="47.8" y="0.0" type="line"/>
      <point x="543.6" y="0.0" type="line"/>
      <point x="543.6" y="28.2" type="line"/>
      <point x="414.2" y="58.6" type="line"/>
    </contour>
    <contour>
      <point x="830.4" y="-11.399999999999999" type="line" smooth="yes"/>
      <point x="830.4" y="-220.8"/>
      <point x="824.8000000000001" y="-251.20000000000002"/>
      <point x="662.6" y="-442.8" type="curve"/>
      <point x="683.2" y="-463.0" type="line"/>
      <point x="1045.0" y="-169.4"/>
      <point x="1065.2" y="-127.2"/>
      <point x="1065.2" y="81.8" type="curve" smooth="yes"/>
      <point x="1065.2" y="725.0" type="line" smooth="yes"/>
      <point x="1065.2" y="942.6"/>
      <point x="979.8" y="1044.0"/>
      <point x="787.1999999999999" y="1044.0" type="curve" smooth="yes"/>
      <point x="660.0" y="1044.0"/>
      <point x="583.8" y="1013.0"/>
      <point x="375.8" y="836.8" type="curve"/>
      <point x="386.2" y="816.6" type="line"/>
      <point x="449.40000000000003" y="847.0"/>
      <point x="539.6" y="877.8"/>
      <point x="632.4" y="877.8" type="curve" smooth="yes"/>
      <point x="768.5999999999999" y="877.8"/>
      <point x="830.4" y="817.8"/>
      <point x="830.4" y="691.6" type="curve" smooth="yes"/>
    </contour>
  </outline>
</glyph>
<glyph name="Tbar" format="2">
  <advance width="1474.0"/>
  <unicode hex="0166"/>
  <outline>
    <contour>
      <point x="326.2" y="701.4" type="line"/>
      <point x="1147.8" y="701.4" type="line"/>
      <point x="1147.8" y="771.4000000000001" type="line"/>
      <point x="326.2" y="771.4000000000001" type="line"/>
    </contour>
    <contour>
      <point x="603.8" y="1398.0" type="line"/>
      <point x="603.8" y="75.60000000000001" type="line"/>
      <point x="430.0" y="30.799999999999997" type="line"/>
      <point x="430.0" y="0.0" type="line"/>
      <point x="1044.0" y="0.0" type="line"/>
      <point x="1044.0" y="30.799999999999997" type="line"/>
      <point x="870.1999999999999" y="75.60000000000001" type="line"/>
      <point x="870.1999999999999" y="1398.0" type="line"/>
    </contour>
    <contour>
      <point x="1312.4" y="1362.0" type="line"/>
      <point x="1195.0" y="1384.8" type="line"/>
      <point x="1404.8" y="972.6" type="line"/>
      <point x="1435.4" y="979.6" type="line"/>
      <point x="1371.3999999999999" y="1504.8000000000002" type="line"/>
      <point x="1353.0" y="1504.8000000000002" type="line"/>
      <point x="1186.8" y="1410.8" type="line"/>
      <point x="1288.4" y="1430.0" type="line"/>
      <point x="185.6" y="1430.0" type="line"/>
      <point x="287.2" y="1410.8" type="line"/>
      <point x="121.0" y="1504.8000000000002" type="line"/>
      <point x="102.60000000000001" y="1504.8000000000002" type="line"/>
      <point x="38.6" y="979.6" type="line"/>
      <point x="69.2" y="972.6" type="line"/>
      <point x="279.0" y="1384.8" type="line"/>
      <point x="161.6" y="1362.0" type="line"/>
    </contour>
  </outline>
</glyph>
<glyph name="Uogonek" format="2">
  <advance width="1596.6"/>
  <unicode hex="0172"/>
  <outline>
    <contour>
      <point x="1322.4" y="568.0" type="line" smooth="yes"/>
      <point x="1322.4" y="256.8"/>
      <point x="1169.2" y="118.0"/>
      <point x="893.4" y="118.0" type="curve" smooth="yes"/>
      <point x="609.4" y="118.0"/>
      <point x="466.8" y="260.2"/>
      <point x="466.8" y="564.1999999999999" type="curve" smooth="yes"/>
      <point x="466.8" y="1357.0" type="line"/>
      <point x="638.5999999999999" y="1399.0" type="line"/>
      <point x="638.5999999999999" y="1430.0" type="line"/>
      <point x="28.6" y="1430.0" type="line"/>
      <point x="28.6" y="1399.0" type="line"/>
      <point x="200.4" y="1357.0" type="line"/>
      <point x="200.4" y="581.0" type="line" smooth="yes"/>
      <point x="200.4" y="181.4"/>
      <point x="415.6" y="-22.0"/>
      <point x="811.4" y="-22.0" type="curve" smooth="yes"/>
      <point x="1179.6" y="-22.0"/>
      <point x="1393.0" y="178.0"/>
      <point x="1393.0" y="551.4" type="curve" smooth="yes"/>
      <point x="1393.0" y="1356.1999999999998" type="line"/>
      <point x="1564.8" y="1399.0" type="line"/>
      <point x="1564.8" y="1430.0" type="line"/>
      <point x="1133.8" y="1430.0" type="line"/>
      <point x="1133.8" y="1399.0" type="line"/>
      <point x="1322.4" y="1356.1999999999998" type="line"/>
    </contour>
    <contour>
      <point x="909.2" y="-53.0" type="curve" smooth="yes"/>
      <point x="1008.8" y="80.2" type="line"/>
      <point x="983.0" y="80.2" type="line"/>
      <point x="825.8" y="-86.2" type="line" smooth="yes"/>
      <point x="698.6" y="-214.4"/>
      <point x="673.0" y="-274.0"/>
      <point x="673.0" y="-332.2" type="curve" smooth="yes"/>
      <point x="673.0" y="-405.0"/>
      <point x="717.6" y="-465.0"/>
      <point x="821.2" y="-465.0" type="curve" smooth="yes"/>
      <point x="890.5999999999999" y="-465.0"/>
      <point x="939.4" y="-438.2"/>
      <point x="1033.0" y="-331.0" type="curve"/>
      <point x="1021.2" y="-313.2" type="line"/>
      <point x="967.0" y="-356.2"/>
      <point x="931.8" y="-362.40000000000003"/>
      <point x="899.5999999999999" y="-362.40000000000003" type="curve" smooth="yes"/>
      <point x="837.4" y="-362.40000000000003"/>
      <point x="801.8" y="-328.0"/>
      <point x="801.8" y="-274.4" type="curve" smooth="yes"/>
      <point x="801.8" y="-226.2"/>
      <point x="817.8" y="-172.8"/>
    </contour>
  </outline>
</glyph>
<glyph name="Uhorn" format="2">
  <advance width="1590.8"/>
  <unicode hex="01AF"/>
  <anchor x="856.8" y="1430.0" name="UCtop"/>
  <anchor x="856.8" y="0.0" name="bottom"/>
  <outline>
    <contour>
      <point x="1598.6" y="1548.0" type="curve" smooth="yes"/>
      <point x="1598.6" y="1477.8"/>
      <point x="1551.2" y="1430.0"/>
      <point x="1415.6" y="1430.0" type="curve" smooth="yes"/>
      <point x="1133.8" y="1430.0" type="line"/>
      <point x="1133.8" y="1399.0" type="line"/>
      <point x="1322.4" y="1356.1999999999998" type="line"/>
      <point x="1322.4" y="568.0" type="line" smooth="yes"/>
      <point x="1322.4" y="256.8"/>
      <point x="1169.2" y="118.0"/>
      <point x="893.4" y="118.0" type="curve" smooth="yes"/>
      <point x="609.4" y="118.0"/>
      <point x="466.8" y="260.2"/>
      <point x="466.8" y="564.1999999999999" type="curve" smooth="yes"/>
      <point x="466.8" y="1357.0" type="line"/>
      <point x="638.5999999999999" y="1399.0" type="line"/>
      <point x="638.5999999999999" y="1430.0" type="line"/>
      <point x="28.6" y="1430.0" type="line"/>
      <point x="28.6" y="1399.0" type="line"/>
      <point x="200.4" y="1357.0" type="line"/>
      <point x="200.4" y="581.0" type="line" smooth="yes"/>
      <point x="200.4" y="181.4"/>
      <point x="415.6" y="-22.0"/>
      <point x="811.4" y="-22.0" type="curve" smooth="yes"/>
      <point x="1179.6" y="-22.0"/>
      <point x="1393.0" y="178.0"/>
      <point x="1393.0" y="551.4" type="curve" smooth="yes"/>
      <point x="1393.0" y="1356.8000000000002" type="line"/>
      <point x="1675.6000000000001" y="1377.6"/>
      <point x="1757.3999999999999" y="1473.4"/>
      <point x="1757.3999999999999" y="1615.2" type="curve" smooth="yes"/>
      <point x="1757.3999999999999" y="1699.6"/>
      <point x="1716.8" y="1747.6000000000001"/>
      <point x="1645.8" y="1747.6000000000001" type="curve" smooth="yes"/>
      <point x="1586.8" y="1747.6000000000001"/>
      <point x="1548.6000000000001" y="1709.6000000000001"/>
      <point x="1548.6000000000001" y="1673.8" type="curve" smooth="yes"/>
      <point x="1548.6" y="1660.3999999999999"/>
      <point x="1598.6" y="1616.3999999999999"/>
    </contour>
  </outline>
</glyph>
<glyph name="uhorn" format="2">
  <advance width="1195.8000000000002"/>
  <unicode hex="01B0"/>
  <anchor x="562.8" y="1024.0" name="top"/>
  <anchor x="570.8000000000001" y="0.0" name="bottom"/>
  <outline>
    <contour>
      <point x="393.79999999999995" y="322.0" type="curve" smooth="yes"/>
      <point x="393.79999999999995" y="939.1999999999999" type="line"/>
      <point x="402.8" y="1033.4" type="line"/>
      <point x="-4.3999999999999995" y="1013.0" type="line"/>
      <point x="-4.3999999999999995" y="975.2" type="line"/>
      <point x="159.0" y="934.6" type="line"/>
      <point x="159.0" y="296.79999999999995" type="line" smooth="yes"/>
      <point x="159.0" y="81.0"/>
      <point x="244.2" y="-20.0"/>
      <point x="433.2" y="-20.0" type="curve" smooth="yes"/>
      <point x="560.0" y="-20.0"/>
      <point x="634.8" y="11.0"/>
      <point x="841.0" y="185.0" type="curve"/>
      <point x="828.2" y="207.79999999999998" type="line"/>
      <point x="767.0" y="171.2"/>
      <point x="680.2" y="139.0"/>
      <point x="588.6" y="139.0" type="curve" smooth="yes"/>
      <point x="454.6" y="139.0"/>
      <point x="393.79999999999995" y="198.39999999999998"/>
    </contour>
    <contour>
      <point x="1117.8" y="1140.4" type="curve" smooth="yes"/>
      <point x="1117.8" y="1080.4"/>
      <point x="1076.1999999999998" y="1037.0"/>
      <point x="970.0" y="1031.2" type="curve" smooth="yes"/>
      <point x="620.4" y="1013.0" type="line"/>
      <point x="620.4" y="975.2" type="line"/>
      <point x="781.8" y="935.2" type="line"/>
      <point x="781.8" y="161.4" type="line"/>
      <point x="787.6" y="-29.400000000000002" type="line"/>
      <point x="797.4" y="-29.400000000000002" type="line"/>
      <point x="1171.6000000000001" y="23.8" type="line"/>
      <point x="1171.6000000000001" y="47.6" type="line"/>
      <point x="1129.6000000000001" y="66.80510384145515"/>
      <point x="1040.6" y="106.62565494773993"/>
      <point x="1016.6" y="117.6" type="curve"/>
      <point x="1016.6" y="938.5999999999999" type="line"/>
      <point x="1021.8000000000001" y="985.0" type="line"/>
      <point x="1202.2" y="1001.8"/>
      <point x="1276.6" y="1086.8"/>
      <point x="1276.6" y="1207.6" type="curve" smooth="yes"/>
      <point x="1276.6" y="1292.0"/>
      <point x="1236.0" y="1340.0"/>
      <point x="1165.0" y="1340.0" type="curve" smooth="yes"/>
      <point x="1106.0" y="1340.0"/>
      <point x="1067.8000000000002" y="1302.0"/>
      <point x="1067.8" y="1266.2" type="curve" smooth="yes"/>
      <point x="1067.8" y="1252.8"/>
      <point x="1117.8" y="1208.8"/>
    </contour>
  </outline>
</glyph>
<glyph name="uni0259" format="2">
  <advance width="1009.2"/>
  <unicode hex="0259"/>
  <outline>
    <contour>
      <point x="446.0" y="-22.0" type="curve" smooth="yes"/>
      <point x="761.8" y="-22.0"/>
      <point x="939.8000000000001" y="233.20000000000002"/>
      <point x="939.8000000000001" y="530.8000000000001" type="curve" smooth="yes"/>
      <point x="939.8000000000001" y="864.1999999999999"/>
      <point x="740.0" y="1046.0"/>
      <point x="467.6" y="1046.0" type="curve" smooth="yes"/>
      <point x="299.0" y="1046.0"/>
      <point x="174.8" y="973.0"/>
      <point x="45.6" y="757.8000000000001" type="curve"/>
      <point x="64.2" y="743.8" type="line"/>
      <point x="138.39999999999998" y="836.0"/>
      <point x="240.6" y="876.6"/>
      <point x="350.0" y="876.6" type="curve" smooth="yes"/>
      <point x="580.2" y="876.6"/>
      <point x="707.0" y="744.6"/>
      <point x="707.0" y="417.6" type="curve" smooth="yes"/>
      <point x="707.0" y="160.20000000000002"/>
      <point x="621.8" y="33.2"/>
      <point x="477.2" y="33.2" type="curve" smooth="yes"/>
      <point x="367.8" y="33.2"/>
      <point x="311.59999999999997" y="124.4"/>
      <point x="293.2" y="348.59999999999997" type="curve"/>
      <point x="190.4" y="305.6" type="line"/>
      <point x="734.4" y="305.6" type="line"/>
      <point x="734.4" y="370.2" type="line"/>
      <point x="67.60000000000001" y="370.2" type="line"/>
      <point x="86.19999999999999" y="117.0"/>
      <point x="222.4" y="-22.0"/>
    </contour>
  </outline>
</glyph>
<glyph name="acutecomb" format="2">
  <unicode hex="0301"/>
  <anchor x="0.0" y="1024.0" name="_top"/>
  <anchor x="0.0" y="1535.0" name="top"/>
  <outline>
    <contour>
      <point x="-34.4" y="1138.0" type="line"/>
      <point x="-1.799999999999999" y="1138.0" type="line"/>
      <point x="310.4" y="1455.6" type="line"/>
      <point x="310.4" y="1464.0" type="line"/>
      <point x="100.19999999999999" y="1464.0" type="line"/>
    </contour>
  </outline>
</glyph>
<glyph name="hookabovecomb" format="2">
  <unicode hex="0309"/>
  <anchor x="0.0" y="1024.0" name="_top"/>
  <anchor x="0.0" y="1464.0" name="top"/>
  <outline>
    <contour>
      <point x="-171.6" y="1363.6000000000001" type="line"/>
      <point x="42.4" y="1356.0"/>
      <point x="91.0" y="1331.8"/>
      <point x="91.0" y="1282.0" type="curve" smooth="yes"/>
      <point x="91.0" y="1227.8"/>
      <point x="34.6" y="1193.6"/>
      <point x="-85.4" y="1157.8" type="curve"/>
      <point x="-73.4" y="1123.6000000000001" type="line"/>
      <point x="139.0" y="1175.0"/>
      <point x="202.6" y="1237.0"/>
      <point x="202.6" y="1323.2" type="curve" smooth="yes"/>
      <point x="202.6" y="1417.0"/>
      <point x="142.0" y="1483.8"/>
      <point x="-151.2" y="1497.6" type="curve"/>
    </contour>
  </outline>
</glyph>
<glyph name="uni0312" format="2">
  <unicode hex="0312"/>
  <anchor x="0.0" y="1024.0" name="_top"/>
  <anchor x="0.0" y="1464.0" name="top"/>
  <outline>
    <contour>
      <point x="134.6" y="1248.2" type="curve" smooth="yes"/>
      <point x="134.6" y="1270.3999999999999"/>
      <point x="0.20000000000000062" y="1265.4"/>
      <point x="0.20000000000000062" y="1344.2" type="curve" smooth="yes"/>
      <point x="0.20000000000000062" y="1396.8"/>
      <point x="40.4" y="1433.0"/>
      <point x="153.4" y="1442.8000000000002" type="curve"/>
      <point x="153.4" y="1479.0" type="line"/>
      <point x="-52.599999999999994" y="1464.6"/>
      <point x="-119.8" y="1367.6000000000001"/>
      <point x="-119.8" y="1264.0" type="curve" smooth="yes"/>
      <point x="-119.8" y="1182.0"/>
      <point x="-66.2" y="1127.0"/>
      <point x="7.0" y="1127.0" type="curve" smooth="yes"/>
      <point x="82.4" y="1127.0"/>
      <point x="134.6" y="1176.4"/>
    </contour>
  </outline>
</glyph>
<glyph name="uni0328" format="2">
  <unicode hex="0328"/>
  <anchor x="0.0" y="0.0" name="_right"/>
  <outline>
    <contour>
      <point x="-99.6" y="-53.0" type="curve" smooth="yes"/>
      <point x="0.0" y="80.2" type="line"/>
      <point x="-25.8" y="80.2" type="line"/>
      <point x="-183.0" y="-86.2" type="line" smooth="yes"/>
      <point x="-310.2" y="-214.4"/>
      <point x="-335.8" y="-274.0"/>
      <point x="-335.8" y="-332.2" type="curve" smooth="yes"/>
      <point x="-335.8" y="-405.0"/>
      <point x="-291.2" y="-465.0"/>
      <point x="-187.6" y="-465.0" type="curve" smooth="yes"/>
      <point x="-118.2" y="-465.0"/>
      <point x="-69.39999999999999" y="-438.2"/>
      <point x="24.200000000000003" y="-331.0" type="curve"/>
      <point x="12.4" y="-313.2" type="line"/>
      <point x="-41.8" y="-356.2"/>
      <point x="-77.0" y="-362.40000000000003"/>
      <point x="-109.2" y="-362.40000000000003" type="curve" smooth="yes"/>
      <point x="-171.4" y="-362.40000000000003"/>
      <point x="-207.0" y="-328.0"/>
      <point x="-207.0" y="-274.4" type="curve" smooth="yes"/>
      <point x="-207.0" y="-226.2"/>
      <point x="-191.0" y="-172.8"/>
    </contour>
  </outline>
</glyph>
<glyph name="uni0331" format="2">
  <unicode hex="0331"/>
  <anchor x="0.0" y="0.0" name="_bottom"/>
  <anchor x="0.0" y="-465.0" name="bottom"/>
  <outline>
    <contour>
      <point x="-290.59999999999997" y="-258.0" type="line"/>
      <point x="290.59999999999997" y="-258.0" type="line"/>
      <point x="290.59999999999997" y="-177.0" type="line"/>
      <point x="-290.59999999999997" y="-177.0" type="line"/>
    </contour>
  </outline>
</glyph>
<glyph name="emdash" format="2">
  <advance width="1303.2"/>
  <unicode hex="2014"/>
  <outline>
    <contour>
      <point x="76.60000000000001" y="558.0" type="line"/>
      <point x="76.60000000000001" y="486.0" type="line"/>
      <point x="1226.6000000000001" y="486.0" type="line"/>
      <point x="1226.6000000000001" y="558.0" type="line"/>
    </contour>
  </outline>
</glyph>
<glyph name="quoteleft" format="2">
  <advance width="475.0"/>
  <unicode hex="2018"/>
  <outline>
    <contour>
      <point x="411.4" y="1416.8" type="curve"/>
      <point x="391.2" y="1450.0" type="line"/>
      <point x="172.6" y="1354.1999999999998"/>
      <point x="74.4" y="1226.6000000000001"/>
      <point x="74.4" y="1085.0" type="curve" smooth="yes"/>
      <point x="74.4" y="969.8"/>
      <point x="140.4" y="907.0"/>
      <point x="233.0" y="907.0" type="curve" smooth="yes"/>
      <point x="317.8" y="907.0"/>
      <point x="377.0" y="967.6"/>
      <point x="377.0" y="1048.6" type="curve" smooth="yes"/>
      <point x="377.0" y="1067.2"/>
      <point x="228.6" y="1097.2"/>
      <point x="228.6" y="1198.2" type="curve" smooth="yes"/>
      <point x="228.6" y="1283.2"/>
      <point x="279.0" y="1352.0"/>
    </contour>
  </outline>
</glyph>
<glyph name="quoteright" format="2">
  <advance width="481.79999999999995"/>
  <unicode hex="2019"/>
  <outline>
    <contour>
      <point x="82.8" y="939.4" type="curve"/>
      <point x="103.0" y="906.2" type="line"/>
      <point x="321.59999999999997" y="1002.0"/>
      <point x="419.8" y="1129.6"/>
      <point x="419.8" y="1271.2" type="curve" smooth="yes"/>
      <point x="419.8" y="1386.4"/>
      <point x="353.8" y="1449.2"/>
      <point x="261.2" y="1449.2" type="curve" smooth="yes"/>
      <point x="176.4" y="1449.2"/>
      <point x="117.2" y="1388.6"/>
      <point x="117.2" y="1307.6000000000001" type="curve" smooth="yes"/>
      <point x="117.2" y="1289.0"/>
      <point x="265.6" y="1259.0"/>
      <point x="265.6" y="1158.0" type="curve" smooth="yes"/>
      <point x="265.6" y="1073.0"/>
      <point x="215.2" y="1004.2"/>
    </contour>
  </outline>
</glyph>
<glyph name="dagger" format="2">
  <advance width="752.8"/>
  <unicode hex="2020"/>
  <outline>
    <contour>
      <point x="374.2" y="1213.8" type="line"/>
      <point x="96.4" y="1268.6" type="line"/>
      <point x="96.4" y="1113.0" type="line"/>
      <point x="374.2" y="1168.8" type="line"/>
      <point x="656.4" y="1113.0" type="line"/>
      <point x="656.4" y="1268.6" type="line"/>
    </contour>
    <contour>
      <point x="351.40000000000003" y="1191.3999999999999" type="line"/>
      <point x="298.79999999999995" y="898.4000000000001" type="line"/>
      <point x="366.40000000000003" y="627.0" type="line"/>
      <point x="381.8" y="627.0" type="line"/>
      <point x="449.6" y="898.4000000000001" type="line"/>
      <point x="396.6" y="1191.3999999999999" type="line"/>
      <point x="455.2" y="1464.0" type="line"/>
      <point x="293.2" y="1464.0" type="line"/>
    </contour>
  </outline>
</glyph>
<glyph name="guilsinglright" format="2">
  <advance width="604.4"/>
  <unicode hex="203A"/>
  <outline>
    <contour>
      <point x="354.2" y="441.0" type="line"/>
      <point x="354.2" y="604.2" type="line"/>
      <point x="93.4" y="101.8" type="line"/>
      <point x="111.4" y="87.4" type="line"/>
      <point x="523.2" y="514.6" type="line"/>
      <point x="523.2" y="530.6" type="line"/>
      <point x="111.4" y="957.8" type="line"/>
      <point x="93.4" y="943.4" type="line"/>
    </contour>
  </outline>
</glyph>
<glyph name="trademark" format="2">
  <advance width="1674.0"/>
  <unicode hex="2122"/>
  <outline>
    <contour>
      <point x="310.4" y="1416.8" type="line"/>
      <point x="310.4" y="903.4" type="line"/>
      <point x="233.4" y="882.6" type="line"/>
      <point x="233.4" y="863.0" type="line"/>
      <point x="524.6" y="863.0" type="line"/>
      <point x="524.6" y="882.6" type="line"/>
      <point x="446.2" y="903.4" type="line"/>
      <point x="446.2" y="1416.8" type="line"/>
    </contour>
    <contour>
      <point x="1489.8" y="904.8" type="line"/>
      <point x="1451.8" y="1390.0" type="line"/>
      <point x="1532.1999999999998" y="1409.8" type="line"/>
      <point x="1532.1999999999998" y="1430.0" type="line"/>
      <point x="1299.2" y="1430.0" type="line"/>
      <point x="1124.8000000000002" y="978.4" type="line"/>
      <point x="1139.2" y="978.4" type="line"/>
      <point x="965.4" y="1430.0" type="line"/>
      <point x="731.6" y="1430.0" type="line"/>
      <point x="731.6" y="1409.8" type="line"/>
      <point x="815.2" y="1380.8" type="line"/>
      <point x="784.0" y="897.6" type="line"/>
      <point x="707.2" y="882.6" type="line"/>
      <point x="707.2" y="863.0" type="line"/>
      <point x="894.8" y="863.0" type="line"/>
      <point x="894.8" y="882.6" type="line"/>
      <point x="825.8" y="897.6" type="line"/>
      <point x="855.2" y="1385.4" type="line"/>
      <point x="839.0" y="1385.2" type="line"/>
      <point x="1042.2" y="859.8000000000001" type="line"/>
      <point x="1123.4" y="859.8000000000001" type="line"/>
      <point x="1321.1999999999998" y="1376.0" type="line"/>
      <point x="1314.3999999999999" y="1377.0" type="line"/>
      <point x="1349.2" y="904.8" type="line"/>
      <point x="1275.2" y="882.6" type="line"/>
      <point x="1275.2" y="863.0" type="line"/>
      <point x="1571.1999999999998" y="863.0" type="line"/>
      <point x="1571.1999999999998" y="882.6" type="line"/>
    </contour>
    <contour>
      <point x="629.0" y="1391.2" type="line"/>
      <point x="578.8000000000001" y="1411.0" type="line"/>
      <point x="659.8" y="1230.8" type="line"/>
      <point x="680.0" y="1233.0" type="line"/>
      <point x="656.1999999999999" y="1461.6" type="line"/>
      <point x="641.4000000000001" y="1461.6" type="line"/>
      <point x="573.8" y="1421.0" type="line"/>
      <point x="619.1999999999999" y="1430.0" type="line"/>
      <point x="139.0" y="1430.0" type="line"/>
      <point x="185.2" y="1421.0" type="line"/>
      <point x="116.0" y="1461.6" type="line"/>
      <point x="101.2" y="1461.6" type="line"/>
      <point x="76.60000000000001" y="1233.0" type="line"/>
      <point x="97.6" y="1230.8" type="line"/>
      <point x="178.6" y="1411.0" type="line"/>
      <point x="128.2" y="1391.2" type="line"/>
    </contour>
  </outline>
</glyph>
<glyph name="minus" format="2">
  <advance width="1150.0"/>
  <unicode hex="2212"/>
  <outline>
    <contour>
      <point x="164.0" y="548.0" type="line"/>
      <point x="164.0" y="476.0" type="line"/>
      <point x="986.0" y="476.0" type="line"/>
      <point x="986.0" y="548.0" type="line"/>
    </contour>
  </outline>
</glyph>
<glyph name="notequal" format="2">
  <advance width="1150.0"/>
  <unicode hex="2260"/>
  <outline>
    <contour>
      <point x="164.0" y="22.0" type="line"/>
      <point x="246.0" y="22.0" type="line"/>
      <point x="986.0" y="1001.0" type="line"/>
      <point x="904.0" y="1001.0" type="line"/>
    </contour>
    <contour>
      <point x="164.0" y="719.0" type="line"/>
      <point x="164.0" y="647.0" type="line"/>
      <point x="986.0" y="647.0" type="line"/>
      <point x="986.0" y="719.0" type="line"/>
    </contour>
    <contour>
      <point x="164.0" y="379.0" type="line"/>
      <point x="164.0" y="307.0" type="line"/>
      <point x="986.0" y="307.0" type="line"/>
      <point x="986.0" y="379.0" type="line"/>
    </contour>
  </outline>
</glyph>
<glyph name="lessequal" format="2">
  <advance width="1150.0"/>
  <unicode hex="2264"/>
  <outline>
    <contour>
      <point x="154.0" y="72.0" type="line"/>
      <point x="154.0" y="0.0" type="line"/>
      <point x="990.0" y="0.0" type="line"/>
      <point x="990.0" y="72.0" type="line"/>
    </contour>
    <contour>
      <point x="154.0" y="603.8" type="line"/>
      <point x="990.0" y="242.0" type="line"/>
      <point x="990.0" y="320.79999999999995" type="line"/>
      <point x="218.39999999999998" y="652.8000000000001" type="line"/>
      <point x="218.39999999999998" y="631.1999999999999" type="line"/>
      <point x="990.0" y="957.2" type="line"/>
      <point x="990.0" y="1036.0" type="line"/>
      <point x="154.0" y="674.2" type="line"/>
    </contour>
  </outline>
</glyph>
<glyph name="greaterequal" format="2">
  <advance width="1150.0"/>
  <unicode hex="2265"/>
  <outline>
    <contour>
      <point x="996.0" y="72.0" type="line"/>
      <point x="160.0" y="72.0" type="line"/>
      <point x="160.0" y="0.0" type="line"/>
      <point x="996.0" y="0.0" type="line"/>
    </contour>
    <contour>
      <point x="996.0" y="603.8" type="line"/>
      <point x="996.0" y="674.2" type="line"/>
      <point x="160.0" y="1036.0" type="line"/>
      <point x="160.0" y="957.2" type="line"/>
      <point x="931.5999999999999" y="631.1999999999999" type="line"/>
      <point x="931.5999999999999" y="652.8000000000001" type="line"/>
      <point x="160.0" y="320.79999999999995" type="line"/>
      <point x="160.0" y="242.0" type="line"/>
    </contour>
  </outline>
</glyph>
<glyph name="uni27E9" format="2">
  <advance width="1150.0"/>
  <unicode hex="27E9"/>
  <outline>
    <contour>
      <point x="843.5999999999999" y="692.0" type="line"/>
      <point x="845.6" y="740.0" type="line"/>
      <point x="249.6" y="0.0" type="line"/>
      <point x="337.40000000000003" y="0.0" type="line"/>
      <point x="911.4" y="708.0" type="line"/>
      <point x="911.4" y="720.0" type="line"/>
      <point x="337.40000000000003" y="1430.0" type="line"/>
      <point x="249.6" y="1430.0" type="line"/>
    </contour>
  </outline>
</glyph>
<glyph name="f_f" format="2">
  <advance width="1352.0"/>
  <unicode hex="FB00"/>
  <outline>
    <contour>
      <point x="567.2" y="0.0" type="line"/>
      <point x="567.2" y="28.2" type="line"/>
      <point x="431.6" y="59.2" type="line"/>
      <point x="431.6" y="1166.3999999999999" type="line" smooth="yes"/>
      <point x="431.6" y="1304.0"/>
      <point x="498.8" y="1384.0"/>
      <point x="618.8" y="1384.0" type="curve" smooth="yes"/>
      <point x="714.6" y="1384.0"/>
      <point x="783.1999999999999" y="1344.2"/>
      <point x="869.4" y="1234.2" type="curve"/>
      <point x="991.6" y="1365.4" type="line"/>
      <point x="918.0" y="1423.6"/>
      <point x="821.4" y="1451.2"/>
      <point x="695.8" y="1451.2" type="curve" smooth="yes"/>
      <point x="408.2" y="1451.2"/>
      <point x="192.0" y="1251.2"/>
      <point x="192.0" y="967.0" type="curve" smooth="yes"/>
      <point x="192.0" y="59.199999999999996" type="line"/>
      <point x="60.4" y="28.2" type="line"/>
      <point x="60.4" y="0.0" type="line"/>
    </contour>
    <contour>
      <point x="1332.8" y="901.4" type="line"/>
      <point x="1350.2" y="1024.0" type="line"/>
      <point x="299.79999999999995" y="1024.0" type="line"/>
      <point x="220.6" y="1034.4" type="line"/>
      <point x="27.0" y="969.8000000000001" type="line"/>
      <point x="27.0" y="938.1999999999999" type="line"/>
      <point x="208.0" y="883.4000000000001" type="line"/>
      <point x="247.2" y="901.4" type="line"/>
    </contour>
    <contour>
      <point x="1029.2" y="59.2" type="line"/>
      <point x="1029.2" y="1207.8" type="line" smooth="yes"/>
      <point x="1029.2" y="1345.2"/>
      <point x="1072.6" y="1412.0"/>
      <point x="1171.0" y="1412.0" type="curve" smooth="yes"/>
      <point x="1298.4" y="1412.0"/>
      <point x="1419.3999999999999" y="1253.2"/>
      <point x="1448.0" y="1253.2" type="curve" smooth="yes"/>
      <point x="1501.0" y="1253.2"/>
      <point x="1542.8000000000002" y="1301.4"/>
      <point x="1542.8000000000002" y="1354.6" type="curve" smooth="yes"/>
      <point x="1542.8000000000002" y="1429.8000000000002"/>
      <point x="1466.0" y="1486.0"/>
      <point x="1299.0" y="1486.0" type="curve" smooth="yes"/>
      <point x="1003.2" y="1486.0"/>
      <point x="789.6" y="1290.0"/>
      <point x="789.6" y="1001.8" type="curve" smooth="yes"/>
      <point x="789.6" y="59.199999999999996" type="line"/>
      <point x="658.0" y="28.2" type="line"/>
      <point x="658.0" y="0.0" type="line"/>
      <point x="1176.8" y="0.0" type="line"/>
      <point x="1176.8" y="28.2" type="line"/>
    </contour>
  </outline>
</glyph>
<glyph name="f_f_l" format="2">
  <advance width="1791.8"/>
  <unicode hex="FB04"/>
  <outline>
    <contour>
      <point x="1029.2" y="59.199999999999996" type="line"/>
      <point x="1029.2" y="1193.2" type="line" smooth="yes"/>
      <point x="1029.2" y="1333.4"/>
      <point x="1074.3999999999999" y="1402.0"/>
      <point x="1177.3999999999999" y="1402.0" type="curve" smooth="yes"/>
      <point x="1259.0" y="1402.0"/>
      <point x="1336.2" y="1355.2"/>
      <point x="1389.8" y="1285.8" type="curve" smooth="yes"/>
      <point x="1389.8" y="59.199999999999996" type="line"/>
      <point x="1258.2" y="28.2" type="line"/>
      <point x="1258.2" y="0.0" type="line"/>
      <point x="1756.1999999999998" y="0.0" type="line"/>
      <point x="1756.1999999999998" y="28.2" type="line"/>
      <point x="1624.6000000000001" y="59.199999999999996" type="line"/>
      <point x="1624.6000000000001" y="1310.6000000000001" type="line"/>
      <point x="1624.6" y="1486.0" type="line"/>
      <point x="1616.0" y="1486.0" type="line"/>
      <point x="1468.0" y="1436.8" type="line"/>
      <point x="1520.8000000000002" y="1431.8" type="line"/>
      <point x="1451.8" y="1464.0"/>
      <point x="1393.4" y="1476.0"/>
      <point x="1317.1999999999998" y="1476.0" type="curve" smooth="yes"/>
      <point x="1005.2" y="1476.0"/>
      <point x="789.6" y="1288.0"/>
      <point x="789.6" y="999.8" type="curve" smooth="yes"/>
      <point x="789.6" y="59.199999999999996" type="line"/>
      <point x="658.0" y="28.2" type="line"/>
      <point x="658.0" y="0.0" type="line"/>
      <point x="1160.8" y="0.0" type="line"/>
      <point x="1160.8" y="28.2" type="line"/>
    </contour>
    <contour>
      <point x="567.2" y="0.0" type="line"/>
      <point x="567.2" y="28.2" type="line"/>
      <point x="431.6" y="59.2" type="line"/>
      <point x="431.6" y="1166.3999999999999" type="line" smooth="yes"/>
      <point x="431.6" y="1304.0"/>
      <point x="498.8" y="1384.0"/>
      <point x="618.8" y="1384.0" type="curve" smooth="yes"/>
      <point x="714.6" y="1384.0"/>
      <point x="783.1999999999999" y="1344.2"/>
      <point x="869.4" y="1234.2" type="curve"/>
      <point x="991.6" y="1365.4" type="line"/>
      <point x="918.0" y="1423.6"/>
      <point x="821.4" y="1451.2"/>
      <point x="695.8" y="1451.2" type="curve" smooth="yes"/>
      <point x="408.2" y="1451.2"/>
      <point x="192.0" y="1251.2"/>
      <point x="192.0" y="967.0" type="curve" smooth="yes"/>
      <point x="192.0" y="59.199999999999996" type="line"/>
      <point x="60.4" y="28.2" type="line"/>
      <point x="60.4" y="0.0" type="line"/>
    </contour>
    <contour>
      <point x="1300.0" y="1024.0" type="line"/>
      <point x="299.79999999999995" y="1024.0" type="line"/>
      <point x="220.6" y="1034.4" type="line"/>
      <point x="27.0" y="969.8000000000001" type="line"/>
      <point x="27.0" y="938.1999999999999" type="line"/>
      <point x="208.0" y="883.4000000000001" type="line"/>
      <point x="247.2" y="901.4" type="line"/>
      <point x="1281.1999999999998" y="901.4" type="line"/>
    </contour>
  </outline>
</glyph>
<glyph name="Euro.lf" format="2">
  <advance width="1447.6000000000001"/>
  <outline>
    <contour>
      <point x="1045.4" y="590.6" type="line"/>
      <point x="93.80000000000001" y="590.6" type="line"/>
      <point x="93.80000000000001" y="532.8" type="line"/>
      <point x="1045.4" y="532.8" type="line"/>
    </contour>
    <contour>
      <point x="1045.4" y="908.6" type="line"/>
      <point x="93.80000000000001" y="908.6" type="line"/>
      <point x="93.80000000000001" y="849.8" type="line"/>
      <point x="1045.4" y="849.8" type="line"/>
    </contour>
    <contour>
      <point x="942.1999999999999" y="1400.2" type="curve" smooth="yes"/>
      <point x="1108.2" y="1400.2"/>
      <point x="1205.4" y="1180.2"/>
      <point x="1256.6" y="1180.2" type="curve" smooth="yes"/>
      <point x="1324.8" y="1180.2"/>
      <point x="1362.6" y="1218.8000000000002"/>
      <point x="1362.6" y="1273.0" type="curve" smooth="yes"/>
      <point x="1362.6" y="1388.0"/>
      <point x="1194.2" y="1452.0"/>
      <point x="972.5999999999999" y="1452.0" type="curve" smooth="yes"/>
      <point x="547.0" y="1452.0"/>
      <point x="295.2" y="1134.6"/>
      <point x="295.2" y="698.0" type="curve" smooth="yes"/>
      <point x="295.2" y="237.4"/>
      <point x="525.8" y="-22.0"/>
      <point x="940.6" y="-22.0" type="curve" smooth="yes"/>
      <point x="1168.2" y="-22.0"/>
      <point x="1340.6" y="42.6"/>
      <point x="1340.6" y="148.4" type="curve" smooth="yes"/>
      <point x="1340.6" y="199.4"/>
      <point x="1304.4" y="233.0"/>
      <point x="1241.8" y="233.0" type="curve" smooth="yes"/>
      <point x="1187.1999999999998" y="233.0"/>
      <point x="1078.8" y="36.0"/>
      <point x="923.0" y="35.2" type="curve" smooth="yes"/>
      <point x="718.0" y="34.4"/>
      <point x="558.1999999999999" y="227.2"/>
      <point x="558.1999999999999" y="771.0" type="curve" smooth="yes"/>
      <point x="558.1999999999999" y="1203.6"/>
      <point x="709.2" y="1400.2"/>
    </contour>
  </outline>
</glyph>
<glyph name="cent.lf" format="2">
  <advance width="1054.0"/>
  <outline>
    <contour>
      <point x="321.6" y="0.0" type="line"/>
      <point x="377.4" y="0.0" type="line"/>
      <point x="862.4" y="1430.0" type="line"/>
      <point x="805.6" y="1430.0" type="line"/>
    </contour>
    <contour>
      <point x="649.8" y="1246.0" type="curve" smooth="yes"/>
      <point x="342.6" y="1246.0"/>
      <point x="109.80000000000001" y="1013.0"/>
      <point x="109.80000000000001" y="693.5999999999999" type="curve" smooth="yes"/>
      <point x="109.80000000000001" y="360.0"/>
      <point x="304.0" y="178.0"/>
      <point x="568.4" y="178.0" type="curve" smooth="yes"/>
      <point x="731.8" y="178.0"/>
      <point x="851.8" y="250.0"/>
      <point x="976.4000000000001" y="464.2" type="curve"/>
      <point x="958.6" y="478.2" type="line"/>
      <point x="886.1999999999999" y="387.0"/>
      <point x="788.4" y="347.4"/>
      <point x="680.8" y="347.4" type="curve" smooth="yes"/>
      <point x="461.0" y="347.4"/>
      <point x="342.6" y="480.4"/>
      <point x="342.6" y="815.1999999999999" type="curve" smooth="yes"/>
      <point x="342.6" y="1078.6"/>
      <point x="433.8" y="1188.8"/>
      <point x="565.2" y="1188.8" type="curve" smooth="yes"/>
      <point x="691.6" y="1188.8"/>
      <point x="809.2" y="981.4"/>
      <point x="838.8000000000001" y="981.4" type="curve" smooth="yes"/>
      <point x="902.8" y="981.4"/>
      <point x="948.8" y="1022.9999999999999"/>
      <point x="948.8" y="1089.8" type="curve" smooth="yes"/>
      <point x="948.8" y="1170.4"/>
      <point x="861.6" y="1246.0"/>
    </contour>
  </outline>
</glyph>
<glyph name="dollar.lf" format="2">
  <advance width="1133.6"/>
  <outline>
    <contour>
      <point x="467.59999999999997" y="-208.0" type="line"/>
      <point x="524.6" y="-208.0" type="line"/>
      <point x="524.6" y="1638.0" type="line"/>
      <point x="467.59999999999997" y="1638.0" type="line"/>
    </contour>
    <contour>
      <point x="655.6" y="-208.0" type="line"/>
      <point x="712.6" y="-208.0" type="line"/>
      <point x="712.6" y="1638.0" type="line"/>
      <point x="655.6" y="1638.0" type="line"/>
    </contour>
    <contour>
      <point x="474.2" y="-22.0" type="curve" smooth="yes"/>
      <point x="812.6" y="-22.0"/>
      <point x="1044.6" y="159.47692307692304"/>
      <point x="1044.6" y="446.2" type="curve" smooth="yes"/>
      <point x="1044.6" y="661.0"/>
      <point x="932.8" y="790.1999999999999"/>
      <point x="618.0" y="874.6" type="curve" smooth="yes"/>
      <point x="314.2" y="956.1999999999999"/>
      <point x="266.0" y="1031.2"/>
      <point x="266.0" y="1147.8" type="curve" smooth="yes"/>
      <point x="266.0" y="1298.970588235294"/>
      <point x="367.4" y="1400.8"/>
      <point x="570.1999999999999" y="1400.8" type="curve" smooth="yes"/>
      <point x="749.2" y="1400.8"/>
      <point x="847.6" y="1186.0"/>
      <point x="892.5999999999999" y="1186.0" type="curve" smooth="yes"/>
      <point x="958.0" y="1186.0"/>
      <point x="996.8" y="1229.0"/>
      <point x="996.8" y="1288.6" type="curve" smooth="yes"/>
      <point x="996.8" y="1379.2"/>
      <point x="880.0" y="1452.0"/>
      <point x="621.8" y="1452.0" type="curve" smooth="yes"/>
      <point x="302.40000000000003" y="1452.0"/>
      <point x="102.4" y="1267.2"/>
      <point x="102.4" y="1038.0" type="curve" smooth="yes"/>
      <point x="102.4" y="835.0"/>
      <point x="209.20000000000002" y="714.0"/>
      <point x="510.59999999999997" y="635.6" type="curve" smooth="yes"/>
      <point x="810.2" y="557.6"/>
      <point x="879.8000000000001" y="473.4"/>
      <point x="879.8000000000001" y="328.2" type="curve" smooth="yes"/>
      <point x="879.8000000000001" y="132.3826625386997"/>
      <point x="728.2" y="28.400000000000002"/>
      <point x="526.8000000000001" y="28.400000000000002" type="curve" smooth="yes"/>
      <point x="322.4" y="28.400000000000002"/>
      <point x="235.0" y="251.79999999999998"/>
      <point x="186.20000000000002" y="251.79999999999998" type="curve" smooth="yes"/>
      <point x="120.39999999999999" y="251.79999999999998"/>
      <point x="81.2" y="206.4"/>
      <point x="81.2" y="146.6" type="curve" smooth="yes"/>
      <point x="81.2" y="33.09325153374233"/>
      <point x="247.20000000000002" y="-22.0"/>
    </contour>
  </outline>
</glyph>
<glyph name="dong.lf" format="2">
  <advance width="1346.6"/>
  <outline>
    <contour>
      <point x="1242.8" y="-278.4" type="line"/>
      <point x="97.4" y="-278.4" type="line"/>
      <point x="97.4" y="-336.2" type="line"/>
      <point x="1242.8" y="-336.2" type="line"/>
    </contour>
    <contour>
      <point x="839.2" y="784.4" type="curve" smooth="yes"/>
      <point x="839.2" y="121.4" type="line"/>
      <point x="845.0" y="-29.400000000000002" type="line"/>
      <point x="854.8" y="-29.400000000000002" type="line"/>
      <point x="1229.0" y="23.8" type="line"/>
      <point x="1229.0" y="47.6" type="line"/>
      <point x="1189.0" y="65.89057508710013"/>
      <point x="1097.0" y="107.08291932491743"/>
      <point x="1074.0" y="117.6" type="curve"/>
      <point x="1074.0" y="1318.4" type="line"/>
      <point x="1085.1999999999998" y="1486.0" type="line"/>
      <point x="1077.4" y="1486.0" type="line"/>
      <point x="676.4000000000001" y="1399.0" type="line"/>
      <point x="676.4000000000001" y="1378.0" type="line"/>
      <point x="731.4" y="1346.820836173597"/>
      <point x="816.2" y="1298.8385594183142"/>
      <point x="839.2" y="1285.8" type="curve"/>
      <point x="839.2" y="943.2" type="line"/>
      <point x="1006.4" y="965.6" type="line"/>
      <point x="905.0" y="1021.4000000000001"/>
      <point x="777.6" y="1046.0"/>
      <point x="657.6" y="1046.0" type="curve" smooth="yes"/>
      <point x="330.20000000000005" y="1046.0"/>
      <point x="97.39999999999999" y="832.2"/>
      <point x="97.39999999999999" y="462.2" type="curve" smooth="yes"/>
      <point x="97.39999999999999" y="171.8"/>
      <point x="262.8" y="-22.0"/>
      <point x="524.0" y="-22.0" type="curve" smooth="yes"/>
      <point x="636.2" y="-22.0"/>
      <point x="743.0" y="28.799999999999997"/>
      <point x="905.6" y="219.20000000000002" type="curve"/>
      <point x="893.6" y="242.0" type="line"/>
      <point x="816.8" y="160.2"/>
      <point x="732.0" y="129.79999999999998"/>
      <point x="631.8000000000001" y="129.79999999999998" type="curve" smooth="yes"/>
      <point x="438.6" y="129.79999999999998"/>
      <point x="344.2" y="257.8"/>
      <point x="344.2" y="546.4000000000001" type="curve" smooth="yes"/>
      <point x="344.2" y="846.0"/>
      <point x="445.20000000000005" y="993.0"/>
      <point x="619.4000000000001" y="993.0" type="curve" smooth="yes"/>
      <point x="746.0" y="993.0"/>
      <point x="839.2" y="907.8000000000001"/>
    </contour>
    <contour>
      <point x="506.8" y="1140.8" type="line"/>
      <point x="1261.6" y="1140.8" type="line"/>
      <point x="1261.6" y="1208.4" type="line"/>
      <point x="506.8" y="1208.4" type="line"/>
    </contour>
  </outline>
</glyph>
<glyph name="five.lf" format="2">
  <advance width="1069.8"/>
  <outline>
    <contour>
      <point x="326.2" y="-22.8" type="curve" smooth="yes"/>
      <point x="734.8000000000001" y="-22.8"/>
      <point x="962.0" y="221.6"/>
      <point x="962.0" y="497.6" type="curve" smooth="yes"/>
      <point x="962.0" y="692.2133333333333"/>
      <point x="861.2" y="900.4"/>
      <point x="245.0" y="958.8" type="curve"/>
      <point x="211.6" y="837.2" type="line"/>
      <point x="393.6" y="1304.0" type="line"/>
      <point x="323.59999999999997" y="1216.8000000000002" type="line"/>
      <point x="934.0" y="1216.8000000000002" type="line"/>
      <point x="1015.2" y="1470.0" type="line"/>
      <point x="720.8000000000001" y="1430.0" type="line"/>
      <point x="321.2" y="1430.0" type="line"/>
      <point x="140.8" y="732.8000000000001" type="line"/>
      <point x="671.2" y="687.1999999999999"/>
      <point x="792.4" y="532.843654822335"/>
      <point x="792.4" y="380.79999999999995" type="curve" smooth="yes"/>
      <point x="792.4" y="195.8"/>
      <point x="657.0" y="52.8"/>
      <point x="475.6" y="52.8" type="curve" smooth="yes"/>
      <point x="289.0" y="52.8"/>
      <point x="189.0" y="230.60000000000002"/>
      <point x="139.2" y="230.60000000000002" type="curve" smooth="yes"/>
      <point x="83.2" y="230.60000000000002"/>
      <point x="37.8" y="182.20000000000002"/>
      <point x="38.0" y="121.6" type="curve" smooth="yes"/>
      <point x="38.4" y="30.6"/>
      <point x="113.0" y="-22.8"/>
    </contour>
  </outline>
</glyph>
<glyph name="florin.lf" format="2">
  <advance width="1582.0"/>
  <outline>
    <contour>
      <point x="379.2" y="695.6" type="line"/>
      <point x="1226.4" y="695.6" type="line"/>
      <point x="1231.2" y="754.4" type="line"/>
      <point x="384.0" y="754.4" type="line"/>
    </contour>
    <contour>
      <point x="256.4" y="-236.8" type="curve" smooth="yes"/>
      <point x="502.40000000000003" y="-236.8"/>
      <point x="750.0" y="-71.60000000000001"/>
      <point x="867.2" y="488.0" type="curve" smooth="yes"/>
      <point x="991.1999999999999" y="1078.8000000000002" type="line" smooth="yes"/>
      <point x="1042.6" y="1323.0"/>
      <point x="1135.0" y="1406.8"/>
      <point x="1246.8" y="1406.8" type="curve" smooth="yes"/>
      <point x="1359.0" y="1406.8"/>
      <point x="1411.2" y="1243.6000000000001"/>
      <point x="1442.0" y="1243.6000000000001" type="curve" smooth="yes"/>
      <point x="1501.6000000000001" y="1243.6000000000001"/>
      <point x="1539.0" y="1278.4"/>
      <point x="1539.0" y="1327.4" type="curve" smooth="yes"/>
      <point x="1539.0" y="1394.2"/>
      <point x="1468.8" y="1452.0"/>
      <point x="1293.8" y="1452.0" type="curve" smooth="yes"/>
      <point x="1021.0000000000001" y="1452.0"/>
      <point x="797.5999999999999" y="1284.6"/>
      <point x="724.2" y="930.2" type="curve" smooth="yes"/>
      <point x="577.1999999999999" y="206.8" type="line" smooth="yes"/>
      <point x="507.4" y="-128.6"/>
      <point x="395.2" y="-186.39999999999998"/>
      <point x="317.8" y="-186.39999999999998" type="curve" smooth="yes"/>
      <point x="207.6" y="-186.39999999999998"/>
      <point x="166.4" y="-26.599999999999998"/>
      <point x="141.0" y="-26.599999999999998" type="curve" smooth="yes"/>
      <point x="97.60000000000001" y="-26.599999999999998"/>
      <point x="45.599999999999994" y="-55.599999999999994"/>
      <point x="45.599999999999994" y="-121.39999999999999" type="curve" smooth="yes"/>
      <point x="45.599999999999994" y="-196.6"/>
      <point x="124.6" y="-236.8"/>
    </contour>
  </outline>
</glyph>
<glyph name="lira.lf" format="2">
  <advance width="1312.6000000000001"/>
  <outline>
    <contour>
      <point x="962.4" y="627.4" type="line"/>
      <point x="74.8" y="627.4" type="line"/>
      <point x="74.8" y="569.5999999999999" type="line"/>
      <point x="962.4" y="569.5999999999999" type="line"/>
    </contour>
    <contour>
      <point x="962.4" y="908.6" type="line"/>
      <point x="74.8" y="908.6" type="line"/>
      <point x="74.8" y="849.8" type="line"/>
      <point x="962.4" y="849.8" type="line"/>
    </contour>
    <contour>
      <point x="1118.3999999999999" y="985.6" type="curve"/>
      <point x="1159.8" y="989.8000000000001" type="line"/>
      <point x="1113.4" y="1284.4"/>
      <point x="985.4" y="1452.0"/>
      <point x="680.4" y="1452.0" type="curve" smooth="yes"/>
      <point x="352.4" y="1452.0"/>
      <point x="202.0" y="1239.4"/>
      <point x="202.0" y="1026.0" type="curve" smooth="yes"/>
      <point x="202.0" y="739.4"/>
      <point x="463.59999999999997" y="658.2"/>
      <point x="463.59999999999997" y="449.0" type="curve" smooth="yes"/>
      <point x="463.59999999999997" y="360.8"/>
      <point x="425.2" y="280.8"/>
      <point x="181.20000000000002" y="22.799999999999997" type="curve"/>
      <point x="181.20000000000002" y="0.0" type="line"/>
      <point x="1015.6000000000001" y="0.0" type="line"/>
      <point x="1112.0" y="-44.2" type="line"/>
      <point x="1131.4" y="-44.2" type="line"/>
      <point x="1249.6000000000001" y="466.2" type="line"/>
      <point x="1224.3999999999999" y="466.2" type="line"/>
      <point x="919.0" y="117.0" type="line"/>
      <point x="1140.2" y="219.2" type="line"/>
      <point x="367.4" y="219.2" type="line"/>
      <point x="347.4" y="158.4" type="line"/>
      <point x="577.0" y="385.2"/>
      <point x="641.0" y="491.8"/>
      <point x="641.0" y="590.6" type="curve" smooth="yes"/>
      <point x="641.0" y="738.0"/>
      <point x="463.4" y="863.0"/>
      <point x="463.4" y="1062.0" type="curve" smooth="yes"/>
      <point x="463.4" y="1220.0"/>
      <point x="565.0" y="1331.2"/>
      <point x="754.0" y="1331.2" type="curve" smooth="yes"/>
      <point x="960.1999999999999" y="1331.2"/>
      <point x="1066.4" y="1211.1999999999998"/>
    </contour>
  </outline>
</glyph>
<glyph name="nine.lf" format="2">
  <advance width="1183.0"/>
  <outline>
    <contour>
      <point x="240.60000000000002" y="-51.8" type="line"/>
      <point x="881.1999999999999" y="209.79999999999998"/>
      <point x="1097.0" y="498.2"/>
      <point x="1097.0" y="872.4" type="curve" smooth="yes"/>
      <point x="1097.0" y="1192.7606217616578"/>
      <point x="913.0" y="1452.0"/>
      <point x="566.6" y="1452.0" type="curve" smooth="yes"/>
      <point x="249.6" y="1452.0"/>
      <point x="50.2" y="1259.142857142857"/>
      <point x="50.2" y="996.1999999999999" type="curve" smooth="yes"/>
      <point x="50.2" y="762.6"/>
      <point x="219.8" y="622.4"/>
      <point x="439.59999999999997" y="622.4" type="curve" smooth="yes"/>
      <point x="559.858064516129" y="622.4"/>
      <point x="618.6" y="659.6"/>
      <point x="900.6" y="843.8" type="curve"/>
      <point x="874.2" y="863.4" type="line"/>
      <point x="779.7861667133471" y="803.8302342271932"/>
      <point x="665.5999999999999" y="764.2"/>
      <point x="571.4" y="764.2" type="curve" smooth="yes"/>
      <point x="419.8" y="764.2"/>
      <point x="305.8" y="851.4"/>
      <point x="305.8" y="1083.3999999999999" type="curve" smooth="yes"/>
      <point x="305.8" y="1279.3174999999999"/>
      <point x="395.6" y="1399.2"/>
      <point x="550.0" y="1399.2" type="curve" smooth="yes"/>
      <point x="742.8000000000001" y="1399.2"/>
      <point x="836.0" y="1187.7436823104692"/>
      <point x="836.0" y="867.4" type="curve" smooth="yes"/>
      <point x="836.0" y="411.8291329479769"/>
      <point x="672.1909425757473" y="202.49079938015166"/>
      <point x="211.4" y="-17.0" type="curve"/>
    </contour>
  </outline>
</glyph>
<glyph name="numbersign.lf" format="2">
  <advance width="1347.2"/>
  <outline>
    <contour>
      <point x="759.8000000000001" y="0.0" type="line"/>
      <point x="1077.8" y="1430.0" type="line"/>
      <point x="1015.0" y="1430.0" type="line"/>
      <point x="697.0" y="0.0" type="line"/>
    </contour>
    <contour>
      <point x="350.0" y="0.0" type="line"/>
      <point x="668.0" y="1430.0" type="line"/>
      <point x="606.1999999999999" y="1430.0" type="line"/>
      <point x="288.2" y="0.0" type="line"/>
    </contour>
    <contour>
      <point x="1200.6" y="517.4" type="line"/>
      <point x="64.4" y="517.4" type="line"/>
      <point x="64.4" y="456.8" type="line"/>
      <point x="1200.6" y="456.8" type="line"/>
    </contour>
    <contour>
      <point x="1279.3999999999999" y="979.2" type="line"/>
      <point x="167.2" y="979.2" type="line"/>
      <point x="167.2" y="918.6" type="line"/>
      <point x="1279.3999999999999" y="918.6" type="line"/>
    </contour>
  </outline>
</glyph>
<glyph name="sterling.lf" format="2">
  <advance width="1306.0"/>
  <outline>
    <contour>
      <point x="1105.2" y="985.6" type="curve"/>
      <point x="1146.6" y="989.8000000000001" type="line"/>
      <point x="1100.2" y="1284.4"/>
      <point x="972.1999999999999" y="1452.0"/>
      <point x="667.2" y="1452.0" type="curve" smooth="yes"/>
      <point x="339.2" y="1452.0"/>
      <point x="188.8" y="1239.4"/>
      <point x="188.8" y="1026.0" type="curve" smooth="yes"/>
      <point x="188.8" y="739.4"/>
      <point x="450.40000000000003" y="658.2"/>
      <point x="450.40000000000003" y="449.0" type="curve" smooth="yes"/>
      <point x="450.40000000000003" y="360.8"/>
      <point x="412.0" y="280.8"/>
      <point x="168.0" y="22.799999999999997" type="curve"/>
      <point x="168.0" y="0.0" type="line"/>
      <point x="1002.4" y="0.0" type="line"/>
      <point x="1098.8" y="-44.2" type="line"/>
      <point x="1118.2" y="-44.2" type="line"/>
      <point x="1236.4" y="466.2" type="line"/>
      <point x="1211.2" y="466.2" type="line"/>
      <point x="905.8000000000001" y="117.0" type="line"/>
      <point x="1127.0" y="219.2" type="line"/>
      <point x="354.2" y="219.2" type="line"/>
      <point x="334.20000000000005" y="158.4" type="line"/>
      <point x="563.8" y="385.2"/>
      <point x="627.8" y="491.8"/>
      <point x="627.8" y="590.6" type="curve" smooth="yes"/>
      <point x="627.8" y="738.0"/>
      <point x="450.2" y="863.0"/>
      <point x="450.2" y="1062.0" type="curve" smooth="yes"/>
      <point x="450.2" y="1220.0"/>
      <point x="551.8000000000001" y="1331.2"/>
      <point x="740.8000000000001" y="1331.2" type="curve" smooth="yes"/>
      <point x="947.0" y="1331.2"/>
      <point x="1053.2" y="1211.2"/>
    </contour>
    <contour>
      <point x="943.8" y="759.1999999999999" type="line"/>
      <point x="60.6" y="759.1999999999999" type="line"/>
      <point x="60.6" y="700.4000000000001" type="line"/>
      <point x="943.8" y="700.4000000000001" type="line"/>
    </contour>
  </outline>
</glyph>
<glyph name="uni0302.case" format="2">
  <anchor x="0.0" y="1430.0" name="_UCtop"/>
  <anchor x="0.0" y="1870.0" name="UCtop"/>
  <outline>
    <contour>
      <point x="-43.199999999999996" y="1778.0" type="line"/>
      <point x="276.2" y="1544.0" type="line"/>
      <point x="321.0" y="1544.0" type="line"/>
      <point x="75.60000000000001" y="1870.0" type="line"/>
      <point x="-76.4" y="1870.0" type="line"/>
      <point x="-321.0" y="1544.0" type="line"/>
      <point x="-276.2" y="1544.0" type="line"/>
      <point x="44.0" y="1778.0" type="line"/>
    </contour>
  </outline>
</glyph>
<glyph name="uni0302_acutecomb.case" format="2">
  <anchor x="0.0" y="1430.0" name="_UCtop"/>
  <anchor x="0.0" y="1870.0" name="UCtop"/>
  <outline>
    <contour>
      <point x="251.79999999999998" y="1741.0" type="line"/>
      <point x="289.2" y="1741.0" type="line"/>
      <point x="605.0" y="1994.6" type="line"/>
      <point x="605.0" y="2008.0" type="line"/>
      <point x="385.2" y="2008.0" type="line"/>
    </contour>
    <contour>
      <point x="-43.199999999999996" y="1778.0" type="line"/>
      <point x="276.2" y="1544.0" type="line"/>
      <point x="321.0" y="1544.0" type="line"/>
      <point x="75.60000000000001" y="1870.0" type="line"/>
      <point x="-76.4" y="1870.0" type="line"/>
      <point x="-321.0" y="1544.0" type="line"/>
      <point x="-276.2" y="1544.0" type="line"/>
      <point x="44.0" y="1778.0" type="line"/>
    </contour>
  </outline>
</glyph>
<glyph name="uni0306.case" format="2">
  <anchor x="0.0" y="1430.0" name="_UCtop"/>
  <anchor x="0.0" y="1870.0" name="UCtop"/>
  <outline>
    <contour>
      <point x="0.0" y="1665.0" type="curve" smooth="yes"/>
      <point x="-131.20000000000002" y="1665.0"/>
      <point x="-221.79999999999998" y="1726.2"/>
      <point x="-261.40000000000003" y="1870.0" type="curve"/>
      <point x="-309.8" y="1870.0" type="line"/>
      <point x="-245.4" y="1607.0"/>
      <point x="-173.6" y="1534.0"/>
      <point x="0.0" y="1534.0" type="curve" smooth="yes"/>
      <point x="173.6" y="1534.0"/>
      <point x="245.4" y="1607.0"/>
      <point x="309.8" y="1870.0" type="curve"/>
      <point x="261.40000000000003" y="1870.0" type="line"/>
      <point x="221.79999999999998" y="1726.2"/>
      <point x="131.2" y="1665.0"/>
    </contour>
  </outline>
</glyph>
<glyph name="uni0312.case" format="2">
  <anchor x="0.0" y="1430.0" name="_UCtop"/>
  <anchor x="0.0" y="1870.0" name="UCtop"/>
  <outline>
    <contour>
      <point x="127.00000000000001" y="1654.2" type="curve" smooth="yes"/>
      <point x="127.00000000000001" y="1678.8000000000002"/>
      <point x="-3.5999999999999996" y="1685.0"/>
      <point x="-3.5999999999999996" y="1754.0" type="curve" smooth="yes"/>
      <point x="-3.5999999999999996" y="1801.4"/>
      <point x="32.800000000000004" y="1837.8"/>
      <point x="153.4" y="1848.8000000000002" type="curve"/>
      <point x="153.39999999999998" y="1885.0" type="line"/>
      <point x="-46.199999999999996" y="1866.8000000000002"/>
      <point x="-113.39999999999999" y="1771.2"/>
      <point x="-113.39999999999999" y="1670.0" type="curve" smooth="yes"/>
      <point x="-113.39999999999999" y="1585.6"/>
      <point x="-63.6" y="1533.0"/>
      <point x="8.200000000000001" y="1533.0" type="curve" smooth="yes"/>
      <point x="77.39999999999999" y="1533.0"/>
      <point x="127.00000000000001" y="1581.2"/>
    </contour>
  </outline>
</glyph>
<glyph name="uni20A9.lf" format="2">
  <advance width="1518.6"/>
  <outline>
    <contour>
      <point x="1425.8" y="590.6" type="line"/>
      <point x="93.19999999999999" y="590.6" type="line"/>
      <point x="93.19999999999999" y="532.8" type="line"/>
      <point x="1425.8" y="532.8" type="line"/>
    </contour>
    <contour>
      <point x="1425.8" y="908.6" type="line"/>
      <point x="93.19999999999999" y="908.6" type="line"/>
      <point x="93.19999999999999" y="849.8" type="line"/>
      <point x="1425.8" y="849.8" type="line"/>
    </contour>
    <contour>
      <point x="747.0" y="1084.2" type="line"/>
      <point x="1062.8000000000002" y="-11.2" type="line"/>
      <point x="1156.8000000000002" y="-11.2" type="line"/>
      <point x="1320.3999999999999" y="1371.6000000000001" type="line"/>
      <point x="1440.0" y="1400.8" type="line"/>
      <point x="1440.0" y="1430.0" type="line"/>
      <point x="1138.2" y="1430.0" type="line"/>
      <point x="1138.2" y="1400.8" type="line"/>
      <point x="1262.8" y="1373.0" type="line"/>
      <point x="1151.4" y="399.79999999999995" type="line"/>
      <point x="1180.6" y="399.8" type="line"/>
      <point x="871.0" y="1441.2" type="line"/>
      <point x="813.1999999999999" y="1441.2" type="line"/>
      <point x="502.6" y="333.8" type="line"/>
      <point x="551.8" y="362.2" type="line"/>
      <point x="425.4" y="1369.2" type="line"/>
      <point x="549.2" y="1399.6" type="line"/>
      <point x="549.2" y="1430.0" type="line"/>
      <point x="80.2" y="1430.0" type="line"/>
      <point x="80.2" y="1399.6" type="line"/>
      <point x="197.0" y="1368.8" type="line"/>
      <point x="376.2" y="-11.2" type="line"/>
      <point x="463.0" y="-11.2" type="line"/>
      <point x="763.8000000000001" y="1084.2" type="line"/>
    </contour>
  </outline>
</glyph>
<glyph name="uni20AD.lf" format="2">
  <advance width="1531.6000000000001"/>
  <outline>
    <contour>
      <point x="544.8000000000001" y="746.4" type="line"/>
      <point x="1061.8" y="0.0" type="line"/>
      <point x="1483.6" y="0.0" type="line"/>
      <point x="1483.6" y="30.2" type="line"/>
      <point x="1306.4" y="82.0" type="line"/>
      <point x="801.5999999999999" y="805.4" type="line"/>
      <point x="788.8000000000001" y="736.1999999999999" type="line"/>
      <point x="1201.0" y="1359.6" type="line"/>
      <point x="1372.0" y="1397.2" type="line"/>
      <point x="1372.0" y="1430.0" type="line"/>
      <point x="955.6" y="1430.0" type="line"/>
      <point x="955.6" y="1397.2" type="line"/>
      <point x="1130.0" y="1359.8" type="line"/>
      <point x="752.8" y="783.6" type="line"/>
    </contour>
    <contour>
      <point x="1189.8000000000002" y="766.4000000000001" type="line"/>
      <point x="105.39999999999999" y="766.4000000000001" type="line"/>
      <point x="105.39999999999999" y="705.8" type="line"/>
      <point x="1189.8000000000002" y="705.8" type="line"/>
    </contour>
    <contour>
      <point x="558.1999999999999" y="1352.4" type="line"/>
      <point x="735.4" y="1400.1999999999998" type="line"/>
      <point x="735.4" y="1430.0" type="line"/>
      <point x="126.8" y="1430.0" type="line"/>
      <point x="126.8" y="1400.1999999999998" type="line"/>
      <point x="301.8" y="1352.4" type="line"/>
      <point x="301.8" y="77.6" type="line"/>
      <point x="126.8" y="29.799999999999997" type="line"/>
      <point x="126.8" y="0.0" type="line"/>
      <point x="730.1999999999999" y="0.0" type="line"/>
      <point x="730.1999999999999" y="29.799999999999997" type="line"/>
      <point x="558.1999999999999" y="77.6" type="line"/>
    </contour>
  </outline>
</glyph>
<glyph name="uni20B1.lf.1" format="2">
  <advance width="1503.1999999999998"/>
  <outline>
    <contour>
      <point x="335.2" y="1352.4" type="line"/>
      <point x="335.2" y="77.6" type="line"/>
      <point x="122.0" y="29.799999999999997" type="line"/>
      <point x="122.0" y="0.0" type="line"/>
      <point x="808.8" y="0.0" type="line"/>
      <point x="808.8" y="29.799999999999997" type="line"/>
      <point x="591.6" y="77.6" type="line"/>
      <point x="591.6" y="1430.0" type="line"/>
      <point x="122.0" y="1430.0" type="line"/>
      <point x="122.0" y="1400.1999999999998" type="line"/>
    </contour>
    <contour>
      <point x="443.2" y="1430.0" type="line"/>
      <point x="515.8" y="1372.8" type="line"/>
      <point x="671.4000000000001" y="1372.8" type="line" smooth="yes"/>
      <point x="916.6" y="1372.8"/>
      <point x="1003.8" y="1231.0"/>
      <point x="1003.8" y="994.2" type="curve" smooth="yes"/>
      <point x="1003.8" y="754.2"/>
      <point x="917.6" y="615.8000000000001"/>
      <point x="682.0" y="615.8000000000001" type="curve" smooth="yes"/>
      <point x="515.8" y="615.8000000000001" type="line"/>
      <point x="437.59999999999997" y="557.8" type="line"/>
      <point x="763.0" y="557.8" type="line" smooth="yes"/>
      <point x="1106.1999999999998" y="557.8"/>
      <point x="1241.4" y="752.2"/>
      <point x="1241.4" y="994.4" type="curve" smooth="yes"/>
      <point x="1241.4" y="1235.6"/>
      <point x="1109.4" y="1430.0"/>
      <point x="763.0" y="1430.0" type="curve" smooth="yes"/>
    </contour>
    <contour>
      <point x="481.2" y="1208.6" type="line"/>
      <point x="113.2" y="1208.6" type="line"/>
      <point x="113.2" y="1149.8" type="line"/>
      <point x="481.2" y="1149.8" type="line"/>
    </contour>
    <contour>
      <point x="481.2" y="890.5999999999999" type="line"/>
      <point x="113.2" y="890.5999999999999" type="line"/>
      <point x="113.2" y="832.8000000000001" type="line"/>
      <point x="481.2" y="832.8000000000001" type="line"/>
    </contour>
    <contour>
      <point x="1103.2" y="1149.8" type="line"/>
      <point x="1415.0" y="1149.8" type="line"/>
      <point x="1415.0" y="1208.6" type="line"/>
      <point x="1103.2" y="1208.6" type="line"/>
    </contour>
    <contour>
      <point x="1103.2" y="832.8000000000001" type="line"/>
      <point x="1415.0" y="832.8000000000001" type="line"/>
      <point x="1415.0" y="890.5999999999999" type="line"/>
      <point x="1103.2" y="890.5999999999999" type="line"/>
    </contour>
  </outline>
</glyph>
<glyph name="uni20B2.lf.1" format="2">
  <advance width="1300.6"/>
  <outline>
    <contour>
      <point x="722.2" y="1397.8" type="curve" smooth="yes"/>
      <point x="903.6" y="1397.8"/>
      <point x="983.0" y="1183.6"/>
      <point x="1032.0" y="1183.6" type="curve" smooth="yes"/>
      <point x="1100.6000000000001" y="1183.6"/>
      <point x="1141.8" y="1225.8"/>
      <point x="1141.8" y="1283.0" type="curve" smooth="yes"/>
      <point x="1141.8" y="1372.0"/>
      <point x="1024.2" y="1452.0"/>
      <point x="777.8000000000001" y="1452.0" type="curve" smooth="yes"/>
      <point x="342.0" y="1452.0"/>
      <point x="108.39999999999999" y="1126.4"/>
      <point x="108.39999999999999" y="683.6" type="curve" smooth="yes"/>
      <point x="108.39999999999999" y="222.9762711864407"/>
      <point x="356.59999999999997" y="-22.0"/>
      <point x="737.8000000000001" y="-22.0" type="curve" smooth="yes"/>
      <point x="864.6" y="-22.0"/>
      <point x="1032.8000000000002" y="11.0"/>
      <point x="1182.6" y="84.39999999999999" type="curve"/>
      <point x="1182.6" y="96.2" type="line"/>
      <point x="1123.3999999999999" y="125.80000000000001" type="line"/>
      <point x="1123.3999999999999" y="615.6" type="line"/>
      <point x="1213.3999999999999" y="653.8" type="line"/>
      <point x="1213.3999999999999" y="680.0" type="line"/>
      <point x="771.0" y="680.0" type="line"/>
      <point x="771.0" y="649.4" type="line"/>
      <point x="870.1999999999999" y="611.2" type="line"/>
      <point x="870.1999999999999" y="20.4" type="line"/>
      <point x="951.6" y="89.39999999999999" type="line"/>
      <point x="869.6" y="42.6"/>
      <point x="814.2" y="27.2"/>
      <point x="740.2" y="27.2" type="curve" smooth="yes"/>
      <point x="557.6" y="27.2"/>
      <point x="369.0" y="210.54786206896551"/>
      <point x="369.0" y="756.6" type="curve" smooth="yes"/>
      <point x="369.0" y="1179.8"/>
      <point x="499.2" y="1397.8"/>
    </contour>
    <contour>
      <point x="764.0" y="1421.0" type="line"/>
      <point x="764.0" y="1638.0" type="line"/>
      <point x="707.0" y="1638.0" type="line"/>
      <point x="707.0" y="1421.0" type="line"/>
    </contour>
    <contour>
      <point x="707.0" y="-208.0" type="line"/>
      <point x="764.0" y="-208.0" type="line"/>
      <point x="764.0" y="-1.4000000000000004" type="line"/>
      <point x="707.0" y="-1.4000000000000004" type="line"/>
    </contour>
  </outline>
</glyph>
<glyph name="zero.lf" format="2">
  <advance width="1355.8000000000002"/>
  <outline>
    <contour>
      <point x="683.8" y="31.400000000000002" type="curve" smooth="yes"/>
      <point x="481.0" y="31.400000000000002"/>
      <point x="353.2" y="276.4"/>
      <point x="353.2" y="751.0" type="curve" smooth="yes"/>
      <point x="353.2" y="1162.1999999999998"/>
      <point x="471.2" y="1398.6000000000001"/>
      <point x="671.4" y="1398.6000000000001" type="curve" smooth="yes"/>
      <point x="875.2" y="1398.6000000000001"/>
      <point x="1003.5999999999999" y="1153.6"/>
      <point x="1003.5999999999999" y="679.0" type="curve" smooth="yes"/>
      <point x="1003.5999999999999" y="267.79999999999995"/>
      <point x="885.2" y="31.400000000000002"/>
    </contour>
    <contour>
      <point x="680.6" y="1452.0" type="curve" smooth="yes"/>
      <point x="334.0" y="1452.0"/>
      <point x="95.60000000000001" y="1152.6000000000001"/>
      <point x="95.60000000000001" y="713.6" type="curve" smooth="yes"/>
      <point x="95.60000000000001" y="274.40000000000003"/>
      <point x="328.6" y="-22.0"/>
      <point x="674.6" y="-22.0" type="curve" smooth="yes"/>
      <point x="1022.2" y="-22.0"/>
      <point x="1260.2" y="277.40000000000003"/>
      <point x="1260.2" y="716.4" type="curve" smooth="yes"/>
      <point x="1260.2" y="1155.6000000000001"/>
      <point x="1027.6" y="1452.0"/>
    </contour>
  </outline>
</glyph>
